<?xml version="1.0" encoding="UTF-8" standalone="no"?>
<!DOCTYPE svg PUBLIC "-//W3C//DTD SVG 1.1//EN"
 "http://www.w3.org/Graphics/SVG/1.1/DTD/svg11.dtd">
<!-- Generated by graphviz version 2.26.3 (20100126.1600)
 -->
<!-- Title: controllers_diagram Pages: 1 -->
<svg width="689pt" height="626pt"
 viewBox="0.00 0.00 689.00 626.00" xmlns="http://www.w3.org/2000/svg" xmlns:xlink="http://www.w3.org/1999/xlink">
<g id="graph1" class="graph" transform="scale(1 1) rotate(0) translate(4 622)">
<title>controllers_diagram</title>
<polygon fill="white" stroke="white" points="-4,5 -4,-622 686,-622 686,5 -4,5"/>
<!-- _diagram_info -->
<g id="node1" class="node"><title>_diagram_info</title>
<text text-anchor="start" x="408" y="-135.3" font-family="Times Roman,serif" font-size="13.00">Controllers diagram</text>
<text text-anchor="start" x="408" y="-118.3" font-family="Times Roman,serif" font-size="13.00">Date: Mar 12 2015 &#45; 23:39</text>
<text text-anchor="start" x="408" y="-101.3" font-family="Times Roman,serif" font-size="13.00">Migration version: 20150312102110</text>
<text text-anchor="start" x="408" y="-84.3" font-family="Times Roman,serif" font-size="13.00">Generated by RailRoady 1.3.0</text>
<text text-anchor="start" x="408" y="-67.3" font-family="Times Roman,serif" font-size="13.00">http://railroady.prestonlee.com</text>
</g>
<!-- LandingsController -->
<g id="node2" class="node"><title>LandingsController</title>
<polyline fill="none" stroke="black" points="298,-514.5 421,-514.5 "/>
<path fill="none" stroke="black" d="M421,-514.5C427,-514.5 433,-520.5 433,-526.5"/>
<polyline fill="none" stroke="black" points="433,-526.5 433,-604.5 "/>
<path fill="none" stroke="black" d="M433,-604.5C433,-610.5 427,-616.5 421,-616.5"/>
<polyline fill="none" stroke="black" points="421,-616.5 298,-616.5 "/>
<path fill="none" stroke="black" d="M298,-616.5C292,-616.5 286,-610.5 286,-604.5"/>
<polyline fill="none" stroke="black" points="286,-604.5 286,-526.5 "/>
<path fill="none" stroke="black" d="M286,-526.5C286,-520.5 292,-514.5 298,-514.5"/>
<text text-anchor="middle" x="359.5" y="-599.9" font-family="Times Roman,serif" font-size="14.00">LandingsController</text>
<polyline fill="none" stroke="black" points="286,-590.5 433,-590.5 "/>
<text text-anchor="start" x="294" y="-573.9" font-family="Times Roman,serif" font-size="14.00">index</text>
<polyline fill="none" stroke="black" points="286,-564.5 433,-564.5 "/>
<polyline fill="none" stroke="black" points="286,-540.5 433,-540.5 "/>
<text text-anchor="start" x="294" y="-523.9" font-family="Times Roman,serif" font-size="14.00">_layout</text>
</g>
<!-- ApplicationController -->
<g id="node3" class="node"><title>ApplicationController</title>
<polyline fill="none" stroke="black" points="108,-362.5 259,-362.5 "/>
<path fill="none" stroke="black" d="M259,-362.5C265,-362.5 271,-368.5 271,-374.5"/>
<polyline fill="none" stroke="black" points="271,-374.5 271,-468.5 "/>
<path fill="none" stroke="black" d="M271,-468.5C271,-474.5 265,-480.5 259,-480.5"/>
<polyline fill="none" stroke="black" points="259,-480.5 108,-480.5 "/>
<path fill="none" stroke="black" d="M108,-480.5C102,-480.5 96,-474.5 96,-468.5"/>
<polyline fill="none" stroke="black" points="96,-468.5 96,-374.5 "/>
<path fill="none" stroke="black" d="M96,-374.5C96,-368.5 102,-362.5 108,-362.5"/>
<text text-anchor="middle" x="183.5" y="-463.9" font-family="Times Roman,serif" font-size="14.00">ApplicationController</text>
<polyline fill="none" stroke="black" points="96,-454.5 271,-454.5 "/>
<polyline fill="none" stroke="black" points="96,-430.5 271,-430.5 "/>
<polyline fill="none" stroke="black" points="96,-406.5 271,-406.5 "/>
<text text-anchor="start" x="104" y="-389.9" font-family="Times Roman,serif" font-size="14.00">_layout</text>
<text text-anchor="start" x="104" y="-371.9" font-family="Times Roman,serif" font-size="14.00">require_user_signed_in</text>
</g>
<!-- Users::OmniauthCallbacksController -->
<g id="node4" class="node"><title>Users::OmniauthCallbacksController</title>
<polyline fill="none" stroke="black" points="108,-153.5 349,-153.5 "/>
<path fill="none" stroke="black" d="M349,-153.5C355,-153.5 361,-159.5 361,-165.5"/>
<polyline fill="none" stroke="black" points="361,-165.5 361,-261.5 "/>
<path fill="none" stroke="black" d="M361,-261.5C361,-267.5 355,-273.5 349,-273.5"/>
<polyline fill="none" stroke="black" points="349,-273.5 108,-273.5 "/>
<path fill="none" stroke="black" d="M108,-273.5C102,-273.5 96,-267.5 96,-261.5"/>
<polyline fill="none" stroke="black" points="96,-261.5 96,-165.5 "/>
<path fill="none" stroke="black" d="M96,-165.5C96,-159.5 102,-153.5 108,-153.5"/>
<text text-anchor="middle" x="228.5" y="-256.9" font-family="Times Roman,serif" font-size="14.00">Users::OmniauthCallbacksController</text>
<polyline fill="none" stroke="black" points="96,-247.5 361,-247.5 "/>
<text text-anchor="start" x="104" y="-230.9" font-family="Times Roman,serif" font-size="14.00">facebook</text>
<text text-anchor="start" x="104" y="-212.9" font-family="Times Roman,serif" font-size="14.00">passthru</text>
<polyline fill="none" stroke="black" points="96,-203.5 361,-203.5 "/>
<polyline fill="none" stroke="black" points="96,-179.5 361,-179.5 "/>
<text text-anchor="start" x="104" y="-162.9" font-family="Times Roman,serif" font-size="14.00">_layout</text>
</g>
<!-- Users::SessionsController -->
<g id="node5" class="node"><title>Users::SessionsController</title>
<polyline fill="none" stroke="black" points="13,-1.5 180,-1.5 "/>
<path fill="none" stroke="black" d="M180,-1.5C186,-1.5 192,-7.5 192,-13.5"/>
<polyline fill="none" stroke="black" points="192,-13.5 192,-109.5 "/>
<path fill="none" stroke="black" d="M192,-109.5C192,-115.5 186,-121.5 180,-121.5"/>
<polyline fill="none" stroke="black" points="180,-121.5 13,-121.5 "/>
<path fill="none" stroke="black" d="M13,-121.5C7,-121.5 1,-115.5 1,-109.5"/>
<polyline fill="none" stroke="black" points="1,-109.5 1,-13.5 "/>
<path fill="none" stroke="black" d="M1,-13.5C1,-7.5 7,-1.5 13,-1.5"/>
<text text-anchor="middle" x="96.5" y="-104.9" font-family="Times Roman,serif" font-size="14.00">Users::SessionsController</text>
<polyline fill="none" stroke="black" points="1,-95.5 192,-95.5 "/>
<text text-anchor="start" x="9" y="-78.9" font-family="Times Roman,serif" font-size="14.00">create</text>
<text text-anchor="start" x="9" y="-60.9" font-family="Times Roman,serif" font-size="14.00">new</text>
<polyline fill="none" stroke="black" points="1,-51.5 192,-51.5 "/>
<polyline fill="none" stroke="black" points="1,-27.5 192,-27.5 "/>
<text text-anchor="start" x="9" y="-10.9" font-family="Times Roman,serif" font-size="14.00">_layout</text>
</g>
<!-- Users::PasswordsController -->
<g id="node6" class="node"><title>Users::PasswordsController</title>
<polyline fill="none" stroke="black" points="488,-476.5 668,-476.5 "/>
<path fill="none" stroke="black" d="M668,-476.5C674,-476.5 680,-482.5 680,-488.5"/>
<polyline fill="none" stroke="black" points="680,-488.5 680,-566.5 "/>
<path fill="none" stroke="black" d="M680,-566.5C680,-572.5 674,-578.5 668,-578.5"/>
<polyline fill="none" stroke="black" points="668,-578.5 488,-578.5 "/>
<path fill="none" stroke="black" d="M488,-578.5C482,-578.5 476,-572.5 476,-566.5"/>
<polyline fill="none" stroke="black" points="476,-566.5 476,-488.5 "/>
<path fill="none" stroke="black" d="M476,-488.5C476,-482.5 482,-476.5 488,-476.5"/>
<text text-anchor="middle" x="578" y="-561.9" font-family="Times Roman,serif" font-size="14.00">Users::PasswordsController</text>
<polyline fill="none" stroke="black" points="476,-552.5 680,-552.5 "/>
<text text-anchor="start" x="484" y="-535.9" font-family="Times Roman,serif" font-size="14.00">new</text>
<polyline fill="none" stroke="black" points="476,-526.5 680,-526.5 "/>
<polyline fill="none" stroke="black" points="476,-502.5 680,-502.5 "/>
<text text-anchor="start" x="484" y="-485.9" font-family="Times Roman,serif" font-size="14.00">_layout</text>
</g>
<!-- Users::RegistrationsController -->
<g id="node7" class="node"><title>Users::RegistrationsController</title>
<polyline fill="none" stroke="black" points="317,-305.5 516,-305.5 "/>
<path fill="none" stroke="black" d="M516,-305.5C522,-305.5 528,-311.5 528,-317.5"/>
<polyline fill="none" stroke="black" points="528,-317.5 528,-431.5 "/>
<path fill="none" stroke="black" d="M528,-431.5C528,-437.5 522,-443.5 516,-443.5"/>
<polyline fill="none" stroke="black" points="516,-443.5 317,-443.5 "/>
<path fill="none" stroke="black" d="M317,-443.5C311,-443.5 305,-437.5 305,-431.5"/>
<polyline fill="none" stroke="black" points="305,-431.5 305,-317.5 "/>
<path fill="none" stroke="black" d="M305,-317.5C305,-311.5 311,-305.5 317,-305.5"/>
<text text-anchor="middle" x="416.5" y="-426.9" font-family="Times Roman,serif" font-size="14.00">Users::RegistrationsController</text>
<polyline fill="none" stroke="black" points="305,-417.5 528,-417.5 "/>
<text text-anchor="start" x="313" y="-400.9" font-family="Times Roman,serif" font-size="14.00">create</text>
<text text-anchor="start" x="313" y="-382.9" font-family="Times Roman,serif" font-size="14.00">edit</text>
<text text-anchor="start" x="313" y="-364.9" font-family="Times Roman,serif" font-size="14.00">new</text>
<polyline fill="none" stroke="black" points="305,-355.5 528,-355.5 "/>
<polyline fill="none" stroke="black" points="305,-331.5 528,-331.5 "/>
<text text-anchor="start" x="313" y="-314.9" font-family="Times Roman,serif" font-size="14.00">_layout</text>
</g>
</g>
</svg>
