<?xml version="1.0" encoding="UTF-8" standalone="no"?>
<!DOCTYPE svg PUBLIC "-//W3C//DTD SVG 1.1//EN"
 "http://www.w3.org/Graphics/SVG/1.1/DTD/svg11.dtd">
<!-- Generated by graphviz version 2.26.3 (20100126.1600)
 -->
<!-- Title: controllers_diagram Pages: 1 -->
<svg width="1125pt" height="1050pt"
 viewBox="0.00 0.00 1125.00 1050.00" xmlns="http://www.w3.org/2000/svg" xmlns:xlink="http://www.w3.org/1999/xlink">
<g id="graph1" class="graph" transform="scale(1 1) rotate(0) translate(4 1046)">
<title>controllers_diagram</title>
<polygon fill="white" stroke="white" points="-4,5 -4,-1046 1122,-1046 1122,5 -4,5"/>
<!-- _diagram_info -->
<g id="node1" class="node"><title>_diagram_info</title>
<text text-anchor="start" x="9" y="-453.3" font-family="Times Roman,serif" font-size="13.00">Controllers diagram</text>
<text text-anchor="start" x="9" y="-436.3" font-family="Times Roman,serif" font-size="13.00">Date: Apr 19 2015 &#45; 16:13</text>
<text text-anchor="start" x="9" y="-419.3" font-family="Times Roman,serif" font-size="13.00">Migration version: 20150418110757</text>
<text text-anchor="start" x="9" y="-402.3" font-family="Times Roman,serif" font-size="13.00">Generated by RailRoady 1.3.0</text>
<text text-anchor="start" x="9" y="-385.3" font-family="Times Roman,serif" font-size="13.00">http://railroady.prestonlee.com</text>
</g>
<!-- CollegesController -->
<g id="node2" class="node"><title>CollegesController</title>
<polyline fill="none" stroke="black" points="613,-251.5 825,-251.5 "/>
<path fill="none" stroke="black" d="M825,-251.5C831,-251.5 837,-257.5 837,-263.5"/>
<polyline fill="none" stroke="black" points="837,-263.5 837,-503.5 "/>
<path fill="none" stroke="black" d="M837,-503.5C837,-509.5 831,-515.5 825,-515.5"/>
<polyline fill="none" stroke="black" points="825,-515.5 613,-515.5 "/>
<path fill="none" stroke="black" d="M613,-515.5C607,-515.5 601,-509.5 601,-503.5"/>
<polyline fill="none" stroke="black" points="601,-503.5 601,-263.5 "/>
<path fill="none" stroke="black" d="M601,-263.5C601,-257.5 607,-251.5 613,-251.5"/>
<text text-anchor="middle" x="719" y="-498.9" font-family="Times Roman,serif" font-size="14.00">CollegesController</text>
<polyline fill="none" stroke="black" points="601,-489.5 837,-489.5 "/>
<text text-anchor="start" x="609" y="-472.9" font-family="Times Roman,serif" font-size="14.00">branch_autocomplete_elements</text>
<text text-anchor="start" x="609" y="-454.9" font-family="Times Roman,serif" font-size="14.00">college_autocomplete_elements</text>
<text text-anchor="start" x="609" y="-436.9" font-family="Times Roman,serif" font-size="14.00">course_autocomplete_elements</text>
<text text-anchor="start" x="609" y="-418.9" font-family="Times Roman,serif" font-size="14.00">show_content</text>
<text text-anchor="start" x="609" y="-400.9" font-family="Times Roman,serif" font-size="14.00">show_courses</text>
<text text-anchor="start" x="609" y="-382.9" font-family="Times Roman,serif" font-size="14.00">show_discussion</text>
<text text-anchor="start" x="609" y="-364.9" font-family="Times Roman,serif" font-size="14.00">show_users</text>
<polyline fill="none" stroke="black" points="601,-355.5 837,-355.5 "/>
<polyline fill="none" stroke="black" points="601,-331.5 837,-331.5 "/>
<text text-anchor="start" x="609" y="-314.9" font-family="Times Roman,serif" font-size="14.00">_layout</text>
<text text-anchor="start" x="609" y="-296.9" font-family="Times Roman,serif" font-size="14.00">branch_exists_if_passed</text>
<text text-anchor="start" x="609" y="-278.9" font-family="Times Roman,serif" font-size="14.00">branch_passed</text>
<text text-anchor="start" x="609" y="-260.9" font-family="Times Roman,serif" font-size="14.00">college_exists</text>
</g>
<!-- LandingsController -->
<g id="node3" class="node"><title>LandingsController</title>
<polyline fill="none" stroke="black" points="613,-51.5 880,-51.5 "/>
<path fill="none" stroke="black" d="M880,-51.5C886,-51.5 892,-57.5 892,-63.5"/>
<polyline fill="none" stroke="black" points="892,-63.5 892,-179.5 "/>
<path fill="none" stroke="black" d="M892,-179.5C892,-185.5 886,-191.5 880,-191.5"/>
<polyline fill="none" stroke="black" points="880,-191.5 613,-191.5 "/>
<path fill="none" stroke="black" d="M613,-191.5C607,-191.5 601,-185.5 601,-179.5"/>
<polyline fill="none" stroke="black" points="601,-179.5 601,-63.5 "/>
<path fill="none" stroke="black" d="M601,-63.5C601,-57.5 607,-51.5 613,-51.5"/>
<text text-anchor="middle" x="746.5" y="-174.9" font-family="Times Roman,serif" font-size="14.00">LandingsController</text>
<polyline fill="none" stroke="black" points="601,-165.5 892,-165.5 "/>
<text text-anchor="start" x="609" y="-148.9" font-family="Times Roman,serif" font-size="14.00">index</text>
<text text-anchor="start" x="609" y="-130.9" font-family="Times Roman,serif" font-size="14.00">refresh_download_buckets_notifications</text>
<text text-anchor="start" x="609" y="-112.9" font-family="Times Roman,serif" font-size="14.00">refresh_upload_documents_form</text>
<polyline fill="none" stroke="black" points="601,-103.5 892,-103.5 "/>
<text text-anchor="start" x="609" y="-86.9" font-family="Times Roman,serif" font-size="14.00">layout_by_resource</text>
<polyline fill="none" stroke="black" points="601,-77.5 892,-77.5 "/>
<text text-anchor="start" x="609" y="-60.9" font-family="Times Roman,serif" font-size="14.00">_layout</text>
</g>
<!-- PusherController -->
<g id="node4" class="node"><title>PusherController</title>
<polyline fill="none" stroke="black" points="438,-1.5 547,-1.5 "/>
<path fill="none" stroke="black" d="M547,-1.5C553,-1.5 559,-7.5 559,-13.5"/>
<polyline fill="none" stroke="black" points="559,-13.5 559,-91.5 "/>
<path fill="none" stroke="black" d="M559,-91.5C559,-97.5 553,-103.5 547,-103.5"/>
<polyline fill="none" stroke="black" points="547,-103.5 438,-103.5 "/>
<path fill="none" stroke="black" d="M438,-103.5C432,-103.5 426,-97.5 426,-91.5"/>
<polyline fill="none" stroke="black" points="426,-91.5 426,-13.5 "/>
<path fill="none" stroke="black" d="M426,-13.5C426,-7.5 432,-1.5 438,-1.5"/>
<text text-anchor="middle" x="492.5" y="-86.9" font-family="Times Roman,serif" font-size="14.00">PusherController</text>
<polyline fill="none" stroke="black" points="426,-77.5 559,-77.5 "/>
<text text-anchor="start" x="434" y="-60.9" font-family="Times Roman,serif" font-size="14.00">auth</text>
<polyline fill="none" stroke="black" points="426,-51.5 559,-51.5 "/>
<polyline fill="none" stroke="black" points="426,-27.5 559,-27.5 "/>
<text text-anchor="start" x="434" y="-10.9" font-family="Times Roman,serif" font-size="14.00">_layout</text>
</g>
<!-- CommentsController -->
<g id="node5" class="node"><title>CommentsController</title>
<polyline fill="none" stroke="black" points="63,-201.5 239,-201.5 "/>
<path fill="none" stroke="black" d="M239,-201.5C245,-201.5 251,-207.5 251,-213.5"/>
<polyline fill="none" stroke="black" points="251,-213.5 251,-309.5 "/>
<path fill="none" stroke="black" d="M251,-309.5C251,-315.5 245,-321.5 239,-321.5"/>
<polyline fill="none" stroke="black" points="239,-321.5 63,-321.5 "/>
<path fill="none" stroke="black" d="M63,-321.5C57,-321.5 51,-315.5 51,-309.5"/>
<polyline fill="none" stroke="black" points="51,-309.5 51,-213.5 "/>
<path fill="none" stroke="black" d="M51,-213.5C51,-207.5 57,-201.5 63,-201.5"/>
<text text-anchor="middle" x="151" y="-304.9" font-family="Times Roman,serif" font-size="14.00">CommentsController</text>
<polyline fill="none" stroke="black" points="51,-295.5 251,-295.5 "/>
<text text-anchor="start" x="59" y="-278.9" font-family="Times Roman,serif" font-size="14.00">create_comment</text>
<text text-anchor="start" x="59" y="-260.9" font-family="Times Roman,serif" font-size="14.00">create_comment_response</text>
<polyline fill="none" stroke="black" points="51,-251.5 251,-251.5 "/>
<polyline fill="none" stroke="black" points="51,-227.5 251,-227.5 "/>
<text text-anchor="start" x="59" y="-210.9" font-family="Times Roman,serif" font-size="14.00">_layout</text>
</g>
<!-- ApplicationController -->
<g id="node6" class="node"><title>ApplicationController</title>
<polyline fill="none" stroke="black" points="863,-551.5 1086,-551.5 "/>
<path fill="none" stroke="black" d="M1086,-551.5C1092,-551.5 1098,-557.5 1098,-563.5"/>
<polyline fill="none" stroke="black" points="1098,-563.5 1098,-713.5 "/>
<path fill="none" stroke="black" d="M1098,-713.5C1098,-719.5 1092,-725.5 1086,-725.5"/>
<polyline fill="none" stroke="black" points="1086,-725.5 863,-725.5 "/>
<path fill="none" stroke="black" d="M863,-725.5C857,-725.5 851,-719.5 851,-713.5"/>
<polyline fill="none" stroke="black" points="851,-713.5 851,-563.5 "/>
<path fill="none" stroke="black" d="M851,-563.5C851,-557.5 857,-551.5 863,-551.5"/>
<text text-anchor="middle" x="974.5" y="-708.9" font-family="Times Roman,serif" font-size="14.00">ApplicationController</text>
<polyline fill="none" stroke="black" points="851,-699.5 1098,-699.5 "/>
<text text-anchor="start" x="859" y="-682.9" font-family="Times Roman,serif" font-size="14.00">authorize_me_to</text>
<text text-anchor="start" x="859" y="-664.9" font-family="Times Roman,serif" font-size="14.00">current_ability</text>
<text text-anchor="start" x="859" y="-646.9" font-family="Times Roman,serif" font-size="14.00">render_404</text>
<polyline fill="none" stroke="black" points="851,-637.5 1098,-637.5 "/>
<polyline fill="none" stroke="black" points="851,-613.5 1098,-613.5 "/>
<text text-anchor="start" x="859" y="-596.9" font-family="Times Roman,serif" font-size="14.00">_layout</text>
<text text-anchor="start" x="859" y="-578.9" font-family="Times Roman,serif" font-size="14.00">authenticate_active_admin_user!</text>
<text text-anchor="start" x="859" y="-560.9" font-family="Times Roman,serif" font-size="14.00">require_user_signed_in</text>
</g>
<!-- CoursesController -->
<g id="node7" class="node"><title>CoursesController</title>
<polyline fill="none" stroke="black" points="13,-1.5 129,-1.5 "/>
<path fill="none" stroke="black" d="M129,-1.5C135,-1.5 141,-7.5 141,-13.5"/>
<polyline fill="none" stroke="black" points="141,-13.5 141,-145.5 "/>
<path fill="none" stroke="black" d="M141,-145.5C141,-151.5 135,-157.5 129,-157.5"/>
<polyline fill="none" stroke="black" points="129,-157.5 13,-157.5 "/>
<path fill="none" stroke="black" d="M13,-157.5C7,-157.5 1,-151.5 1,-145.5"/>
<polyline fill="none" stroke="black" points="1,-145.5 1,-13.5 "/>
<path fill="none" stroke="black" d="M1,-13.5C1,-7.5 7,-1.5 13,-1.5"/>
<text text-anchor="middle" x="71" y="-140.9" font-family="Times Roman,serif" font-size="14.00">CoursesController</text>
<polyline fill="none" stroke="black" points="1,-131.5 141,-131.5 "/>
<text text-anchor="start" x="9" y="-114.9" font-family="Times Roman,serif" font-size="14.00">show_content</text>
<text text-anchor="start" x="9" y="-96.9" font-family="Times Roman,serif" font-size="14.00">show_discussion</text>
<text text-anchor="start" x="9" y="-78.9" font-family="Times Roman,serif" font-size="14.00">show_users</text>
<polyline fill="none" stroke="black" points="1,-69.5 141,-69.5 "/>
<polyline fill="none" stroke="black" points="1,-45.5 141,-45.5 "/>
<text text-anchor="start" x="9" y="-28.9" font-family="Times Roman,serif" font-size="14.00">_layout</text>
<text text-anchor="start" x="9" y="-10.9" font-family="Times Roman,serif" font-size="14.00">course_exists</text>
</g>
<!-- FoldersController -->
<g id="node8" class="node"><title>FoldersController</title>
<polyline fill="none" stroke="black" points="88,-776.5 267,-776.5 "/>
<path fill="none" stroke="black" d="M267,-776.5C273,-776.5 279,-782.5 279,-788.5"/>
<polyline fill="none" stroke="black" points="279,-788.5 279,-1028.5 "/>
<path fill="none" stroke="black" d="M279,-1028.5C279,-1034.5 273,-1040.5 267,-1040.5"/>
<polyline fill="none" stroke="black" points="267,-1040.5 88,-1040.5 "/>
<path fill="none" stroke="black" d="M88,-1040.5C82,-1040.5 76,-1034.5 76,-1028.5"/>
<polyline fill="none" stroke="black" points="76,-1028.5 76,-788.5 "/>
<path fill="none" stroke="black" d="M76,-788.5C76,-782.5 82,-776.5 88,-776.5"/>
<text text-anchor="middle" x="177.5" y="-1023.9" font-family="Times Roman,serif" font-size="14.00">FoldersController</text>
<polyline fill="none" stroke="black" points="76,-1014.5 279,-1014.5 "/>
<text text-anchor="start" x="84" y="-997.9" font-family="Times Roman,serif" font-size="14.00">create_folder</text>
<text text-anchor="start" x="84" y="-979.9" font-family="Times Roman,serif" font-size="14.00">destroy_folder</text>
<text text-anchor="start" x="84" y="-961.9" font-family="Times Roman,serif" font-size="14.00">edit_details</text>
<text text-anchor="start" x="84" y="-943.9" font-family="Times Roman,serif" font-size="14.00">new_folder</text>
<text text-anchor="start" x="84" y="-925.9" font-family="Times Roman,serif" font-size="14.00">show_content</text>
<text text-anchor="start" x="84" y="-907.9" font-family="Times Roman,serif" font-size="14.00">show_details</text>
<text text-anchor="start" x="84" y="-889.9" font-family="Times Roman,serif" font-size="14.00">update_details</text>
<polyline fill="none" stroke="black" points="76,-880.5 279,-880.5 "/>
<polyline fill="none" stroke="black" points="76,-856.5 279,-856.5 "/>
<text text-anchor="start" x="84" y="-839.9" font-family="Times Roman,serif" font-size="14.00">_layout</text>
<text text-anchor="start" x="84" y="-821.9" font-family="Times Roman,serif" font-size="14.00">authenticate_access_folder</text>
<text text-anchor="start" x="84" y="-803.9" font-family="Times Roman,serif" font-size="14.00">folder_exists</text>
<text text-anchor="start" x="84" y="-785.9" font-family="Times Roman,serif" font-size="14.00">folder_params</text>
</g>
<!-- BucketsController -->
<g id="node9" class="node"><title>BucketsController</title>
<polyline fill="none" stroke="black" points="613,-551.5 799,-551.5 "/>
<path fill="none" stroke="black" d="M799,-551.5C805,-551.5 811,-557.5 811,-563.5"/>
<polyline fill="none" stroke="black" points="811,-563.5 811,-839.5 "/>
<path fill="none" stroke="black" d="M811,-839.5C811,-845.5 805,-851.5 799,-851.5"/>
<polyline fill="none" stroke="black" points="799,-851.5 613,-851.5 "/>
<path fill="none" stroke="black" d="M613,-851.5C607,-851.5 601,-845.5 601,-839.5"/>
<polyline fill="none" stroke="black" points="601,-839.5 601,-563.5 "/>
<path fill="none" stroke="black" d="M601,-563.5C601,-557.5 607,-551.5 613,-551.5"/>
<text text-anchor="middle" x="706" y="-834.9" font-family="Times Roman,serif" font-size="14.00">BucketsController</text>
<polyline fill="none" stroke="black" points="601,-825.5 811,-825.5 "/>
<text text-anchor="start" x="609" y="-808.9" font-family="Times Roman,serif" font-size="14.00">create_bucket</text>
<text text-anchor="start" x="609" y="-790.9" font-family="Times Roman,serif" font-size="14.00">destroy_bucket</text>
<text text-anchor="start" x="609" y="-772.9" font-family="Times Roman,serif" font-size="14.00">down_vote</text>
<text text-anchor="start" x="609" y="-754.9" font-family="Times Roman,serif" font-size="14.00">edit_details</text>
<text text-anchor="start" x="609" y="-736.9" font-family="Times Roman,serif" font-size="14.00">new_bucket</text>
<text text-anchor="start" x="609" y="-718.9" font-family="Times Roman,serif" font-size="14.00">show_content</text>
<text text-anchor="start" x="609" y="-700.9" font-family="Times Roman,serif" font-size="14.00">show_details</text>
<text text-anchor="start" x="609" y="-682.9" font-family="Times Roman,serif" font-size="14.00">up_vote</text>
<text text-anchor="start" x="609" y="-664.9" font-family="Times Roman,serif" font-size="14.00">update_details</text>
<polyline fill="none" stroke="black" points="601,-655.5 811,-655.5 "/>
<polyline fill="none" stroke="black" points="601,-631.5 811,-631.5 "/>
<text text-anchor="start" x="609" y="-614.9" font-family="Times Roman,serif" font-size="14.00">_layout</text>
<text text-anchor="start" x="609" y="-596.9" font-family="Times Roman,serif" font-size="14.00">authenticate_access_bucket</text>
<text text-anchor="start" x="609" y="-578.9" font-family="Times Roman,serif" font-size="14.00">bucket_exists</text>
<text text-anchor="start" x="609" y="-560.9" font-family="Times Roman,serif" font-size="14.00">bucket_params</text>
</g>
<!-- UserDetailsController -->
<g id="node10" class="node"><title>UserDetailsController</title>
<polyline fill="none" stroke="black" points="313,-151.5 540,-151.5 "/>
<path fill="none" stroke="black" d="M540,-151.5C546,-151.5 552,-157.5 552,-163.5"/>
<polyline fill="none" stroke="black" points="552,-163.5 552,-673.5 "/>
<path fill="none" stroke="black" d="M552,-673.5C552,-679.5 546,-685.5 540,-685.5"/>
<polyline fill="none" stroke="black" points="540,-685.5 313,-685.5 "/>
<path fill="none" stroke="black" d="M313,-685.5C307,-685.5 301,-679.5 301,-673.5"/>
<polyline fill="none" stroke="black" points="301,-673.5 301,-163.5 "/>
<path fill="none" stroke="black" d="M301,-163.5C301,-157.5 307,-151.5 313,-151.5"/>
<text text-anchor="middle" x="426.5" y="-668.9" font-family="Times Roman,serif" font-size="14.00">UserDetailsController</text>
<polyline fill="none" stroke="black" points="301,-659.5 552,-659.5 "/>
<text text-anchor="start" x="309" y="-642.9" font-family="Times Roman,serif" font-size="14.00">create_college_branch_enrollment</text>
<text text-anchor="start" x="309" y="-624.9" font-family="Times Roman,serif" font-size="14.00">download_bucket</text>
<text text-anchor="start" x="309" y="-606.9" font-family="Times Roman,serif" font-size="14.00">download_document</text>
<text text-anchor="start" x="309" y="-588.9" font-family="Times Roman,serif" font-size="14.00">downloads</text>
<text text-anchor="start" x="309" y="-570.9" font-family="Times Roman,serif" font-size="14.00">enroll_course</text>
<text text-anchor="start" x="309" y="-552.9" font-family="Times Roman,serif" font-size="14.00">enrolled_courses</text>
<text text-anchor="start" x="309" y="-534.9" font-family="Times Roman,serif" font-size="14.00">favorite_course</text>
<text text-anchor="start" x="309" y="-516.9" font-family="Times Roman,serif" font-size="14.00">favorite_courses</text>
<text text-anchor="start" x="309" y="-498.9" font-family="Times Roman,serif" font-size="14.00">my_college</text>
<text text-anchor="start" x="309" y="-480.9" font-family="Times Roman,serif" font-size="14.00">new_college_branch_enrollment</text>
<text text-anchor="start" x="309" y="-462.9" font-family="Times Roman,serif" font-size="14.00">profile_main</text>
<text text-anchor="start" x="309" y="-444.9" font-family="Times Roman,serif" font-size="14.00">profile_uploads</text>
<text text-anchor="start" x="309" y="-426.9" font-family="Times Roman,serif" font-size="14.00">redirect_to_college</text>
<text text-anchor="start" x="309" y="-408.9" font-family="Times Roman,serif" font-size="14.00">report_inappropriate</text>
<text text-anchor="start" x="309" y="-390.9" font-family="Times Roman,serif" font-size="14.00">request_download_bucket</text>
<text text-anchor="start" x="309" y="-372.9" font-family="Times Roman,serif" font-size="14.00">seen_tour_guide</text>
<text text-anchor="start" x="309" y="-354.9" font-family="Times Roman,serif" font-size="14.00">suggestion</text>
<text text-anchor="start" x="309" y="-336.9" font-family="Times Roman,serif" font-size="14.00">unenroll_college_branch_pair</text>
<text text-anchor="start" x="309" y="-318.9" font-family="Times Roman,serif" font-size="14.00">unenroll_course</text>
<text text-anchor="start" x="309" y="-300.9" font-family="Times Roman,serif" font-size="14.00">unfavorite_course</text>
<text text-anchor="start" x="309" y="-282.9" font-family="Times Roman,serif" font-size="14.00">upload_bucket</text>
<text text-anchor="start" x="309" y="-264.9" font-family="Times Roman,serif" font-size="14.00">uploads</text>
<polyline fill="none" stroke="black" points="301,-255.5 552,-255.5 "/>
<polyline fill="none" stroke="black" points="301,-231.5 552,-231.5 "/>
<text text-anchor="start" x="309" y="-214.9" font-family="Times Roman,serif" font-size="14.00">_layout</text>
<text text-anchor="start" x="309" y="-196.9" font-family="Times Roman,serif" font-size="14.00">college_branch_params</text>
<text text-anchor="start" x="309" y="-178.9" font-family="Times Roman,serif" font-size="14.00">report_params</text>
<text text-anchor="start" x="309" y="-160.9" font-family="Times Roman,serif" font-size="14.00">suggestion_params</text>
</g>
<!-- Users::OmniauthCallbacksController -->
<g id="node11" class="node"><title>Users::OmniauthCallbacksController</title>
<polyline fill="none" stroke="black" points="863,-776.5 1104,-776.5 "/>
<path fill="none" stroke="black" d="M1104,-776.5C1110,-776.5 1116,-782.5 1116,-788.5"/>
<polyline fill="none" stroke="black" points="1116,-788.5 1116,-884.5 "/>
<path fill="none" stroke="black" d="M1116,-884.5C1116,-890.5 1110,-896.5 1104,-896.5"/>
<polyline fill="none" stroke="black" points="1104,-896.5 863,-896.5 "/>
<path fill="none" stroke="black" d="M863,-896.5C857,-896.5 851,-890.5 851,-884.5"/>
<polyline fill="none" stroke="black" points="851,-884.5 851,-788.5 "/>
<path fill="none" stroke="black" d="M851,-788.5C851,-782.5 857,-776.5 863,-776.5"/>
<text text-anchor="middle" x="983.5" y="-879.9" font-family="Times Roman,serif" font-size="14.00">Users::OmniauthCallbacksController</text>
<polyline fill="none" stroke="black" points="851,-870.5 1116,-870.5 "/>
<text text-anchor="start" x="859" y="-853.9" font-family="Times Roman,serif" font-size="14.00">facebook</text>
<text text-anchor="start" x="859" y="-835.9" font-family="Times Roman,serif" font-size="14.00">passthru</text>
<polyline fill="none" stroke="black" points="851,-826.5 1116,-826.5 "/>
<polyline fill="none" stroke="black" points="851,-802.5 1116,-802.5 "/>
<text text-anchor="start" x="859" y="-785.9" font-family="Times Roman,serif" font-size="14.00">_layout</text>
</g>
<!-- Users::SessionsController -->
<g id="node12" class="node"><title>Users::SessionsController</title>
<polyline fill="none" stroke="black" points="888,-251.5 1055,-251.5 "/>
<path fill="none" stroke="black" d="M1055,-251.5C1061,-251.5 1067,-257.5 1067,-263.5"/>
<polyline fill="none" stroke="black" points="1067,-263.5 1067,-359.5 "/>
<path fill="none" stroke="black" d="M1067,-359.5C1067,-365.5 1061,-371.5 1055,-371.5"/>
<polyline fill="none" stroke="black" points="1055,-371.5 888,-371.5 "/>
<path fill="none" stroke="black" d="M888,-371.5C882,-371.5 876,-365.5 876,-359.5"/>
<polyline fill="none" stroke="black" points="876,-359.5 876,-263.5 "/>
<path fill="none" stroke="black" d="M876,-263.5C876,-257.5 882,-251.5 888,-251.5"/>
<text text-anchor="middle" x="971.5" y="-354.9" font-family="Times Roman,serif" font-size="14.00">Users::SessionsController</text>
<polyline fill="none" stroke="black" points="876,-345.5 1067,-345.5 "/>
<text text-anchor="start" x="884" y="-328.9" font-family="Times Roman,serif" font-size="14.00">create</text>
<text text-anchor="start" x="884" y="-310.9" font-family="Times Roman,serif" font-size="14.00">new</text>
<polyline fill="none" stroke="black" points="876,-301.5 1067,-301.5 "/>
<polyline fill="none" stroke="black" points="876,-277.5 1067,-277.5 "/>
<text text-anchor="start" x="884" y="-260.9" font-family="Times Roman,serif" font-size="14.00">_layout</text>
</g>
<!-- Users::PasswordsController -->
<g id="node13" class="node"><title>Users::PasswordsController</title>
<polyline fill="none" stroke="black" points="188,-1.5 368,-1.5 "/>
<path fill="none" stroke="black" d="M368,-1.5C374,-1.5 380,-7.5 380,-13.5"/>
<polyline fill="none" stroke="black" points="380,-13.5 380,-91.5 "/>
<path fill="none" stroke="black" d="M380,-91.5C380,-97.5 374,-103.5 368,-103.5"/>
<polyline fill="none" stroke="black" points="368,-103.5 188,-103.5 "/>
<path fill="none" stroke="black" d="M188,-103.5C182,-103.5 176,-97.5 176,-91.5"/>
<polyline fill="none" stroke="black" points="176,-91.5 176,-13.5 "/>
<path fill="none" stroke="black" d="M176,-13.5C176,-7.5 182,-1.5 188,-1.5"/>
<text text-anchor="middle" x="278" y="-86.9" font-family="Times Roman,serif" font-size="14.00">Users::PasswordsController</text>
<polyline fill="none" stroke="black" points="176,-77.5 380,-77.5 "/>
<text text-anchor="start" x="184" y="-60.9" font-family="Times Roman,serif" font-size="14.00">new</text>
<polyline fill="none" stroke="black" points="176,-51.5 380,-51.5 "/>
<polyline fill="none" stroke="black" points="176,-27.5 380,-27.5 "/>
<text text-anchor="start" x="184" y="-10.9" font-family="Times Roman,serif" font-size="14.00">_layout</text>
</g>
<!-- Users::RegistrationsController -->
<g id="node14" class="node"><title>Users::RegistrationsController</title>
<polyline fill="none" stroke="black" points="38,-526.5 237,-526.5 "/>
<path fill="none" stroke="black" d="M237,-526.5C243,-526.5 249,-532.5 249,-538.5"/>
<polyline fill="none" stroke="black" points="249,-538.5 249,-706.5 "/>
<path fill="none" stroke="black" d="M249,-706.5C249,-712.5 243,-718.5 237,-718.5"/>
<polyline fill="none" stroke="black" points="237,-718.5 38,-718.5 "/>
<path fill="none" stroke="black" d="M38,-718.5C32,-718.5 26,-712.5 26,-706.5"/>
<polyline fill="none" stroke="black" points="26,-706.5 26,-538.5 "/>
<path fill="none" stroke="black" d="M26,-538.5C26,-532.5 32,-526.5 38,-526.5"/>
<text text-anchor="middle" x="137.5" y="-701.9" font-family="Times Roman,serif" font-size="14.00">Users::RegistrationsController</text>
<polyline fill="none" stroke="black" points="26,-692.5 249,-692.5 "/>
<text text-anchor="start" x="34" y="-675.9" font-family="Times Roman,serif" font-size="14.00">ajax_change_password</text>
<text text-anchor="start" x="34" y="-657.9" font-family="Times Roman,serif" font-size="14.00">create</text>
<text text-anchor="start" x="34" y="-639.9" font-family="Times Roman,serif" font-size="14.00">edit</text>
<text text-anchor="start" x="34" y="-621.9" font-family="Times Roman,serif" font-size="14.00">new</text>
<polyline fill="none" stroke="black" points="26,-612.5 249,-612.5 "/>
<polyline fill="none" stroke="black" points="26,-588.5 249,-588.5 "/>
<text text-anchor="start" x="34" y="-571.9" font-family="Times Roman,serif" font-size="14.00">_layout</text>
<text text-anchor="start" x="34" y="-553.9" font-family="Times Roman,serif" font-size="14.00">account_update_params</text>
<text text-anchor="start" x="34" y="-535.9" font-family="Times Roman,serif" font-size="14.00">sign_up_params</text>
</g>
<!-- DocumentsController -->
<g id="node15" class="node"><title>DocumentsController</title>
<polyline fill="none" stroke="black" points="338,-726.5 546,-726.5 "/>
<path fill="none" stroke="black" d="M546,-726.5C552,-726.5 558,-732.5 558,-738.5"/>
<polyline fill="none" stroke="black" points="558,-738.5 558,-978.5 "/>
<path fill="none" stroke="black" d="M558,-978.5C558,-984.5 552,-990.5 546,-990.5"/>
<polyline fill="none" stroke="black" points="546,-990.5 338,-990.5 "/>
<path fill="none" stroke="black" d="M338,-990.5C332,-990.5 326,-984.5 326,-978.5"/>
<polyline fill="none" stroke="black" points="326,-978.5 326,-738.5 "/>
<path fill="none" stroke="black" d="M326,-738.5C326,-732.5 332,-726.5 338,-726.5"/>
<text text-anchor="middle" x="442" y="-973.9" font-family="Times Roman,serif" font-size="14.00">DocumentsController</text>
<polyline fill="none" stroke="black" points="326,-964.5 558,-964.5 "/>
<text text-anchor="start" x="334" y="-947.9" font-family="Times Roman,serif" font-size="14.00">create_document</text>
<text text-anchor="start" x="334" y="-929.9" font-family="Times Roman,serif" font-size="14.00">destroy_document</text>
<text text-anchor="start" x="334" y="-911.9" font-family="Times Roman,serif" font-size="14.00">edit_details</text>
<text text-anchor="start" x="334" y="-893.9" font-family="Times Roman,serif" font-size="14.00">new_document</text>
<text text-anchor="start" x="334" y="-875.9" font-family="Times Roman,serif" font-size="14.00">show_details</text>
<text text-anchor="start" x="334" y="-857.9" font-family="Times Roman,serif" font-size="14.00">update_details</text>
<text text-anchor="start" x="334" y="-839.9" font-family="Times Roman,serif" font-size="14.00">view_document</text>
<polyline fill="none" stroke="black" points="326,-830.5 558,-830.5 "/>
<polyline fill="none" stroke="black" points="326,-806.5 558,-806.5 "/>
<text text-anchor="start" x="334" y="-789.9" font-family="Times Roman,serif" font-size="14.00">_layout</text>
<text text-anchor="start" x="334" y="-771.9" font-family="Times Roman,serif" font-size="14.00">authenticate_access_document</text>
<text text-anchor="start" x="334" y="-753.9" font-family="Times Roman,serif" font-size="14.00">document_exists</text>
<text text-anchor="start" x="334" y="-735.9" font-family="Times Roman,serif" font-size="14.00">document_params</text>
</g>
</g>
</svg>
