<?xml version="1.0" encoding="UTF-8" standalone="no"?>
<!DOCTYPE svg PUBLIC "-//W3C//DTD SVG 1.1//EN"
 "http://www.w3.org/Graphics/SVG/1.1/DTD/svg11.dtd">
<!-- Generated by graphviz version 2.26.3 (20100126.1600)
 -->
<!-- Title: models_diagram Pages: 1 -->
<svg width="860pt" height="546pt"
 viewBox="0.00 0.00 860.00 546.00" xmlns="http://www.w3.org/2000/svg" xmlns:xlink="http://www.w3.org/1999/xlink">
<g id="graph1" class="graph" transform="scale(1 1) rotate(0) translate(4 542)">
<title>models_diagram</title>
<polygon fill="white" stroke="white" points="-4,5 -4,-542 857,-542 857,5 -4,5"/>
<!-- _diagram_info -->
<g id="node1" class="node"><title>_diagram_info</title>
<text text-anchor="start" x="38" y="-521.8" font-family="Times Roman,serif" font-size="13.00">Models diagram</text>
<text text-anchor="start" x="38" y="-504.8" font-family="Times Roman,serif" font-size="13.00">Date: Mar 12 2015 &#45; 23:39</text>
<text text-anchor="start" x="38" y="-487.8" font-family="Times Roman,serif" font-size="13.00">Migration version: 20150312102110</text>
<text text-anchor="start" x="38" y="-470.8" font-family="Times Roman,serif" font-size="13.00">Generated by RailRoady 1.3.0</text>
<text text-anchor="start" x="38" y="-453.8" font-family="Times Roman,serif" font-size="13.00">http://railroady.prestonlee.com</text>
</g>
<!-- Category -->
<g id="node2" class="node"><title>Category</title>
<ellipse fill="none" stroke="black" cx="669" cy="-241" rx="56.0679" ry="18.3848"/>
<text text-anchor="middle" x="669" y="-237.4" font-family="Times Roman,serif" font-size="14.00">Category</text>
</g>
<!-- Bucket -->
<g id="node6" class="node"><title>Bucket</title>
<ellipse fill="none" stroke="black" cx="659" cy="-167" rx="44.7575" ry="18.3848"/>
<text text-anchor="middle" x="659" y="-163.4" font-family="Times Roman,serif" font-size="14.00">Bucket</text>
</g>
<!-- Category&#45;&gt;Bucket -->
<g id="edge2" class="edge"><title>Category&#45;&gt;Bucket</title>
<path fill="none" stroke="#126a97" d="M665.393,-214.309C664.571,-208.229 663.695,-201.745 662.863,-195.589"/>
<ellipse fill="none" stroke="#126a97" cx="665.941" cy="-218.363" rx="4.00001" ry="4.00001"/>
<polygon fill="#126a97" stroke="#126a97" points="662.862,-195.577 665.982,-185.065 662.192,-190.622 661.523,-185.667 661.523,-185.667 661.523,-185.667 662.192,-190.622 657.063,-186.27 662.862,-195.577 662.862,-195.577"/>
</g>
<!-- Course -->
<g id="node3" class="node"><title>Course</title>
<ellipse fill="none" stroke="black" cx="141" cy="-241" rx="45.9619" ry="18.3848"/>
<text text-anchor="middle" x="141" y="-237.4" font-family="Times Roman,serif" font-size="14.00">Course</text>
</g>
<!-- Course&#45;&gt;Bucket -->
<g id="edge4" class="edge"><title>Course&#45;&gt;Bucket</title>
<path fill="none" stroke="#b74115" d="M181.909,-225.664C186.615,-224.26 191.381,-222.995 196,-222 367.035,-185.17 415.764,-216.725 588,-186 596.038,-184.566 604.493,-182.662 612.655,-180.613"/>
<ellipse fill="none" stroke="#b74115" cx="177.896" cy="-226.93" rx="4.00001" ry="4.00001"/>
<polygon fill="#b74115" stroke="#b74115" points="612.742,-180.59 623.554,-182.416 617.579,-179.326 622.417,-178.062 622.417,-178.062 622.417,-178.062 617.579,-179.326 621.279,-173.708 612.742,-180.59 612.742,-180.59"/>
</g>
<!-- CourseEnrollment -->
<g id="node11" class="node"><title>CourseEnrollment</title>
<ellipse fill="none" stroke="black" cx="259" cy="-167" rx="98.9949" ry="18.3848"/>
<text text-anchor="middle" x="259" y="-163.4" font-family="Times Roman,serif" font-size="14.00">CourseEnrollment</text>
</g>
<!-- Course&#45;&gt;CourseEnrollment -->
<g id="edge6" class="edge"><title>Course&#45;&gt;CourseEnrollment</title>
<path fill="none" stroke="#fc82ab" d="M172.955,-220.961C188.165,-211.422 206.435,-199.965 222.22,-190.065"/>
<ellipse fill="none" stroke="#fc82ab" cx="169.414" cy="-223.181" rx="4.00002" ry="4.00002"/>
<polygon fill="#fc82ab" stroke="#fc82ab" points="222.227,-190.061 233.089,-188.561 226.463,-187.405 230.699,-184.748 230.699,-184.748 230.699,-184.748 226.463,-187.405 228.308,-180.936 222.227,-190.061 222.227,-190.061"/>
</g>
<!-- Comment -->
<g id="node13" class="node"><title>Comment</title>
<ellipse fill="none" stroke="black" cx="104" cy="-93" rx="58.1882" ry="18.3848"/>
<text text-anchor="middle" x="104" y="-89.4" font-family="Times Roman,serif" font-size="14.00">Comment</text>
</g>
<!-- Course&#45;&gt;Comment -->
<g id="edge10" class="edge"><title>Course&#45;&gt;Comment</title>
<path fill="none" stroke="#d3b7f6" d="M134.427,-214.707C127.892,-188.568 117.897,-148.587 111.163,-121.651"/>
<ellipse fill="none" stroke="#d3b7f6" cx="135.419" cy="-218.674" rx="4.00001" ry="4.00001"/>
<polygon fill="#d3b7f6" stroke="#d3b7f6" points="111.095,-121.379 113.035,-110.586 109.882,-116.528 108.669,-111.678 108.669,-111.678 108.669,-111.678 109.882,-116.528 104.304,-112.769 111.095,-121.379 111.095,-121.379"/>
</g>
<!-- CourseFavorite -->
<g id="node14" class="node"><title>CourseFavorite</title>
<ellipse fill="none" stroke="black" cx="494" cy="-167" rx="84.8528" ry="18.3848"/>
<text text-anchor="middle" x="494" y="-163.4" font-family="Times Roman,serif" font-size="14.00">CourseFavorite</text>
</g>
<!-- Course&#45;&gt;CourseFavorite -->
<g id="edge8" class="edge"><title>Course&#45;&gt;CourseFavorite</title>
<path fill="none" stroke="#e7185d" d="M182.728,-225.856C187.18,-224.459 191.665,-223.142 196,-222 268.259,-202.966 352.068,-188.123 412.367,-178.679"/>
<ellipse fill="none" stroke="#e7185d" cx="178.592" cy="-227.2" rx="4.00001" ry="4.00001"/>
<polygon fill="#e7185d" stroke="#e7185d" points="412.708,-178.626 423.279,-181.541 417.649,-177.86 422.59,-177.094 422.59,-177.094 422.59,-177.094 417.649,-177.86 421.901,-172.647 412.708,-178.626 412.708,-178.626"/>
</g>
<!-- Folder -->
<g id="node4" class="node"><title>Folder</title>
<ellipse fill="none" stroke="black" cx="545" cy="-93" rx="41.2167" ry="18.3848"/>
<text text-anchor="middle" x="545" y="-89.4" font-family="Times Roman,serif" font-size="14.00">Folder</text>
</g>
<!-- Folder&#45;&gt;Folder -->
<g id="edge12" class="edge"><title>Folder&#45;&gt;Folder</title>
<path fill="none" stroke="#5247a2" d="M582.12,-106.874C594.297,-106.813 604,-102.188 604,-93 604,-84.2491 595.199,-79.6375 583.842,-79.1654"/>
<ellipse fill="none" stroke="#5247a2" cx="577.827" cy="-106.555" rx="4" ry="4"/>
<polygon fill="#5247a2" stroke="#5247a2" points="583.821,-79.1665 573.579,-75.2498 578.829,-79.4544 573.838,-79.7424 573.838,-79.7424 573.838,-79.7424 578.829,-79.4544 574.097,-84.2349 583.821,-79.1665 583.821,-79.1665"/>
</g>
<!-- Document -->
<g id="node16" class="node"><title>Document</title>
<ellipse fill="none" stroke="black" cx="545" cy="-19" rx="62.2254" ry="18.3848"/>
<text text-anchor="middle" x="545" y="-15.4" font-family="Times Roman,serif" font-size="14.00">Document</text>
</g>
<!-- Folder&#45;&gt;Document -->
<g id="edge14" class="edge"><title>Folder&#45;&gt;Document</title>
<path fill="none" stroke="#493774" d="M545,-66.309C545,-60.3769 545,-54.0606 545,-48.0396"/>
<ellipse fill="none" stroke="#493774" cx="545" cy="-70.3267" rx="4" ry="4"/>
<polygon fill="#493774" stroke="#493774" points="545,-47.6674 549.5,-37.6673 545,-42.6674 545,-37.6674 545,-37.6674 545,-37.6674 545,-42.6674 540.5,-37.6674 545,-47.6674 545,-47.6674"/>
</g>
<!-- CollegeBranchPair -->
<g id="node5" class="node"><title>CollegeBranchPair</title>
<ellipse fill="none" stroke="black" cx="362" cy="-315" rx="99.9096" ry="18.3848"/>
<text text-anchor="middle" x="362" y="-311.4" font-family="Times Roman,serif" font-size="14.00">CollegeBranchPair</text>
</g>
<!-- CollegeBranchPair&#45;&gt;Course -->
<g id="edge16" class="edge"><title>CollegeBranchPair&#45;&gt;Course</title>
<path fill="none" stroke="#98068d" d="M304.609,-296.184C272.61,-285.642 232.056,-272.2 196,-260 192.543,-258.83 188.967,-257.612 185.373,-256.383"/>
<ellipse fill="none" stroke="#98068d" cx="308.753" cy="-297.548" rx="4.00001" ry="4.00001"/>
<polygon fill="#98068d" stroke="#98068d" points="185.35,-256.375 177.353,-248.872 180.621,-254.752 175.892,-253.128 175.892,-253.128 175.892,-253.128 180.621,-254.752 174.43,-257.384 185.35,-256.375 185.35,-256.375"/>
</g>
<!-- UserCollegeBranchEnrollment -->
<g id="node7" class="node"><title>UserCollegeBranchEnrollment</title>
<ellipse fill="none" stroke="black" cx="362" cy="-241" rx="156.978" ry="18.3848"/>
<text text-anchor="middle" x="362" y="-237.4" font-family="Times Roman,serif" font-size="14.00">UserCollegeBranchEnrollment</text>
</g>
<!-- CollegeBranchPair&#45;&gt;UserCollegeBranchEnrollment -->
<g id="edge20" class="edge"><title>CollegeBranchPair&#45;&gt;UserCollegeBranchEnrollment</title>
<path fill="none" stroke="#11c6c3" d="M362,-288.309C362,-282.377 362,-276.061 362,-270.04"/>
<ellipse fill="none" stroke="#11c6c3" cx="362" cy="-292.327" rx="4" ry="4"/>
<polygon fill="#11c6c3" stroke="#11c6c3" points="362,-269.667 366.5,-259.667 362,-264.667 362,-259.667 362,-259.667 362,-259.667 362,-264.667 357.5,-259.667 362,-269.667 362,-269.667"/>
</g>
<!-- CollegeBranchPair&#45;&gt;Comment -->
<g id="edge18" class="edge"><title>CollegeBranchPair&#45;&gt;Comment</title>
<path fill="none" stroke="#39487d" d="M259.257,-307.909C190.211,-300.757 107.962,-286.77 86,-260 53.7093,-220.64 73.8332,-157.295 89.8989,-120.985"/>
<ellipse fill="none" stroke="#39487d" cx="263.627" cy="-308.348" rx="4" ry="4"/>
<polygon fill="#39487d" stroke="#39487d" points="90.0846,-120.583 98.3614,-113.389 92.1801,-116.043 94.2756,-111.503 94.2756,-111.503 94.2756,-111.503 92.1801,-116.043 90.1899,-109.617 90.0846,-120.583 90.0846,-120.583"/>
</g>
<!-- User -->
<g id="node17" class="node"><title>User</title>
<ellipse fill="none" stroke="black" cx="523" cy="-389" rx="33.9411" ry="18.3848"/>
<text text-anchor="middle" x="523" y="-385.4" font-family="Times Roman,serif" font-size="14.00">User</text>
</g>
<!-- CollegeBranchPair&#45;&gt;User -->
<g id="edge22" class="edge"><title>CollegeBranchPair&#45;&gt;User</title>
<path fill="none" stroke="#bf428c" d="M413.716,-335.943C438.808,-347.069 468.148,-360.598 490.161,-371.21"/>
<polygon fill="#bf428c" stroke="#bf428c" points="413.482,-335.84 406.146,-327.69 408.907,-333.824 404.331,-331.808 404.331,-331.808 404.331,-331.808 408.907,-333.824 402.517,-335.926 413.482,-335.84 413.482,-335.84"/>
<polygon fill="#bf428c" stroke="#bf428c" points="490.192,-371.225 497.216,-379.646 494.688,-373.412 499.184,-375.599 499.184,-375.599 499.184,-375.599 494.688,-373.412 501.153,-371.552 490.192,-371.225 490.192,-371.225"/>
</g>
<!-- Bucket&#45;&gt;Folder -->
<g id="edge24" class="edge"><title>Bucket&#45;&gt;Folder</title>
<path fill="none" stroke="#e89d62" d="M627.682,-146.671C611.98,-136.478 592.99,-124.152 577.172,-113.883"/>
<ellipse fill="none" stroke="#e89d62" cx="631.468" cy="-149.129" rx="4.00002" ry="4.00002"/>
<polygon fill="#e89d62" stroke="#e89d62" points="577.139,-113.862 571.201,-104.643 572.945,-111.14 568.751,-108.417 568.751,-108.417 568.751,-108.417 572.945,-111.14 566.301,-112.192 577.139,-113.862 577.139,-113.862"/>
</g>
<!-- Download -->
<g id="node10" class="node"><title>Download</title>
<ellipse fill="none" stroke="black" cx="791" cy="-93" rx="60.8112" ry="18.3848"/>
<text text-anchor="middle" x="791" y="-89.4" font-family="Times Roman,serif" font-size="14.00">Download</text>
</g>
<!-- Bucket&#45;&gt;Download -->
<g id="edge28" class="edge"><title>Bucket&#45;&gt;Download</title>
<path fill="none" stroke="#38c7f5" d="M692.957,-147.963C711.201,-137.736 733.759,-125.09 752.636,-114.507"/>
<ellipse fill="none" stroke="#38c7f5" cx="689.201" cy="-150.069" rx="4.00002" ry="4.00002"/>
<polygon fill="#38c7f5" stroke="#38c7f5" points="752.849,-114.388 763.772,-113.423 757.21,-111.943 761.572,-109.498 761.572,-109.498 761.572,-109.498 757.21,-111.943 759.371,-105.572 752.849,-114.388 752.849,-114.388"/>
</g>
<!-- Bucket&#45;&gt;Comment -->
<g id="edge30" class="edge"><title>Bucket&#45;&gt;Comment</title>
<path fill="none" stroke="#a51110" d="M614.505,-154.012C605.771,-151.77 596.639,-149.637 588,-148 440.64,-120.07 265.163,-104.442 171.252,-97.4753"/>
<ellipse fill="none" stroke="#a51110" cx="618.521" cy="-155.071" rx="4.00001" ry="4.00001"/>
<polygon fill="#a51110" stroke="#a51110" points="171.013,-97.4579 161.368,-92.2401 166.027,-97.093 161.04,-96.7281 161.04,-96.7281 161.04,-96.7281 166.027,-97.093 160.712,-101.216 171.013,-97.4579 171.013,-97.4579"/>
</g>
<!-- Upload -->
<g id="node15" class="node"><title>Upload</title>
<ellipse fill="none" stroke="black" cx="667" cy="-93" rx="44.7575" ry="18.3848"/>
<text text-anchor="middle" x="667" y="-89.4" font-family="Times Roman,serif" font-size="14.00">Upload</text>
</g>
<!-- Bucket&#45;&gt;Upload -->
<g id="edge26" class="edge"><title>Bucket&#45;&gt;Upload</title>
<path fill="none" stroke="#292515" d="M661.886,-140.309C662.527,-134.377 663.21,-128.061 663.861,-122.04"/>
<ellipse fill="none" stroke="#292515" cx="661.449" cy="-144.35" rx="4.00001" ry="4.00001"/>
<polygon fill="#292515" stroke="#292515" points="663.907,-121.609 669.456,-112.151 664.444,-116.638 664.982,-111.667 664.982,-111.667 664.982,-111.667 664.444,-116.638 660.508,-111.184 663.907,-121.609 663.907,-121.609"/>
</g>
<!-- Branch -->
<g id="node8" class="node"><title>Branch</title>
<ellipse fill="none" stroke="black" cx="344" cy="-491" rx="45.9619" ry="18.3848"/>
<text text-anchor="middle" x="344" y="-487.4" font-family="Times Roman,serif" font-size="14.00">Branch</text>
</g>
<!-- Branch&#45;&gt;CollegeBranchPair -->
<g id="edge32" class="edge"><title>Branch&#45;&gt;CollegeBranchPair</title>
<path fill="none" stroke="#e10e3e" d="M333.304,-465.039C324.613,-440.211 315.258,-401.934 325,-370 328.073,-359.928 333.675,-350.03 339.607,-341.468"/>
<ellipse fill="none" stroke="#e10e3e" cx="334.7" cy="-468.847" rx="4.00001" ry="4.00001"/>
<polygon fill="#e10e3e" stroke="#e10e3e" points="339.628,-341.439 349.188,-336.067 342.598,-337.417 345.567,-333.394 345.567,-333.394 345.567,-333.394 342.598,-337.417 341.947,-330.721 339.628,-341.439 339.628,-341.439"/>
</g>
<!-- College -->
<g id="node18" class="node"><title>College</title>
<ellipse fill="none" stroke="black" cx="381" cy="-389" rx="46.8775" ry="18.3848"/>
<text text-anchor="middle" x="381" y="-385.4" font-family="Times Roman,serif" font-size="14.00">College</text>
</g>
<!-- Branch&#45;&gt;College -->
<g id="edge34" class="edge"><title>Branch&#45;&gt;College</title>
<path fill="none" stroke="#aa330b" d="M354.321,-462.548C359.449,-448.411 365.627,-431.379 370.746,-417.266"/>
<polygon fill="#aa330b" stroke="#aa330b" points="354.196,-462.891 346.556,-470.757 352.491,-467.591 350.786,-472.292 350.786,-472.292 350.786,-472.292 352.491,-467.591 355.017,-473.826 354.196,-462.891 354.196,-462.891"/>
<polygon fill="#aa330b" stroke="#aa330b" points="370.847,-416.99 378.487,-409.124 372.552,-412.29 374.257,-407.59 374.257,-407.59 374.257,-407.59 372.552,-412.29 370.026,-406.055 370.847,-416.99 370.847,-416.99"/>
</g>
<!-- AdminUser -->
<g id="node9" class="node"><title>AdminUser</title>
<ellipse fill="none" stroke="black" cx="472" cy="-491" rx="63.8479" ry="18.3848"/>
<text text-anchor="middle" x="472" y="-487.4" font-family="Times Roman,serif" font-size="14.00">AdminUser</text>
</g>
<!-- CommentResponse -->
<g id="node12" class="node"><title>CommentResponse</title>
<ellipse fill="none" stroke="black" cx="104" cy="-19" rx="104.151" ry="18.3848"/>
<text text-anchor="middle" x="104" y="-15.4" font-family="Times Roman,serif" font-size="14.00">CommentResponse</text>
</g>
<!-- Comment&#45;&gt;CommentResponse -->
<g id="edge36" class="edge"><title>Comment&#45;&gt;CommentResponse</title>
<path fill="none" stroke="#9a1176" d="M104,-66.309C104,-60.3769 104,-54.0606 104,-48.0396"/>
<ellipse fill="none" stroke="#9a1176" cx="104" cy="-70.3267" rx="4" ry="4"/>
<polygon fill="#9a1176" stroke="#9a1176" points="104,-47.6674 108.5,-37.6673 104,-42.6674 104,-37.6674 104,-37.6674 104,-37.6674 104,-42.6674 99.5,-37.6674 104,-47.6674 104,-47.6674"/>
</g>
<!-- User&#45;&gt;CollegeBranchPair -->
<g id="edge50" class="edge"><title>User&#45;&gt;CollegeBranchPair</title>
<path fill="none" stroke="#850fcc" d="M487.477,-375.155C462.15,-364.198 428.199,-348.711 401.945,-336.195"/>
<ellipse fill="none" stroke="#850fcc" cx="491.356" cy="-376.82" rx="4.00002" ry="4.00002"/>
<ellipse fill="#850fcc" stroke="#850fcc" cx="398.017" cy="-334.313" rx="4.00002" ry="4.00002"/>
</g>
<!-- User&#45;&gt;UserCollegeBranchEnrollment -->
<g id="edge48" class="edge"><title>User&#45;&gt;UserCollegeBranchEnrollment</title>
<path fill="none" stroke="#a33090" d="M513.345,-362.822C504.776,-342.515 490.572,-314.757 471,-296 456.338,-281.948 437.382,-270.71 419.401,-262.149"/>
<ellipse fill="none" stroke="#a33090" cx="514.951" cy="-366.772" rx="4.00001" ry="4.00001"/>
<ellipse fill="#a33090" stroke="#a33090" cx="415.405" cy="-260.313" rx="4.00002" ry="4.00002"/>
</g>
<!-- User&#45;&gt;Download -->
<g id="edge46" class="edge"><title>User&#45;&gt;Download</title>
<path fill="none" stroke="#45c02d" d="M564.353,-383.348C601.8,-376.604 657.055,-362.45 697,-334 767.01,-284.136 784.878,-174.131 789.438,-121.778"/>
<ellipse fill="none" stroke="#45c02d" cx="560.119" cy="-384.076" rx="4.00001" ry="4.00001"/>
<polygon fill="#45c02d" stroke="#45c02d" points="789.46,-121.495 794.71,-111.868 789.841,-116.51 790.223,-111.524 790.223,-111.524 790.223,-111.524 789.841,-116.51 785.736,-111.181 789.46,-121.495 789.46,-121.495"/>
</g>
<!-- User&#45;&gt;CourseEnrollment -->
<g id="edge40" class="edge"><title>User&#45;&gt;CourseEnrollment</title>
<path fill="none" stroke="#985024" d="M533.195,-363.098C545.471,-327.137 560.654,-262.006 528,-222 516.467,-207.87 422.575,-190.977 348.924,-179.675"/>
<ellipse fill="none" stroke="#985024" cx="531.821" cy="-366.964" rx="4.00001" ry="4.00001"/>
<polygon fill="#985024" stroke="#985024" points="348.563,-179.62 339.352,-173.669 343.619,-178.869 338.676,-178.118 338.676,-178.118 338.676,-178.118 343.619,-178.869 338,-182.567 348.563,-179.62 348.563,-179.62"/>
</g>
<!-- User&#45;&gt;Comment -->
<g id="edge38" class="edge"><title>User&#45;&gt;Comment</title>
<path fill="none" stroke="#726627" d="M483.695,-380.106C469.054,-376.849 452.283,-373.183 437,-370 269.046,-335.022 163.312,-401.972 67,-260 39.0549,-218.807 52.4756,-195.612 67,-148 70.1229,-137.763 75.8598,-127.705 81.8994,-119.048"/>
<ellipse fill="none" stroke="#726627" cx="487.683" cy="-380.997" rx="4.00001" ry="4.00001"/>
<polygon fill="#726627" stroke="#726627" points="81.9886,-118.928 91.5658,-113.586 84.9714,-114.915 87.9542,-110.902 87.9542,-110.902 87.9542,-110.902 84.9714,-114.915 84.3426,-108.217 81.9886,-118.928 81.9886,-118.928"/>
</g>
<!-- User&#45;&gt;CourseFavorite -->
<g id="edge44" class="edge"><title>User&#45;&gt;CourseFavorite</title>
<path fill="none" stroke="#f96496" d="M543.682,-365.775C550.594,-356.544 557.441,-345.412 561,-334 575.82,-286.479 582.28,-267 561,-222 555.053,-209.424 544.665,-198.759 533.819,-190.265"/>
<ellipse fill="none" stroke="#f96496" cx="541.154" cy="-368.991" rx="4.00002" ry="4.00002"/>
<polygon fill="#f96496" stroke="#f96496" points="533.58,-190.09 528.154,-180.561 529.541,-187.143 525.501,-184.196 525.501,-184.196 525.501,-184.196 529.541,-187.143 522.849,-187.832 533.58,-190.09 533.58,-190.09"/>
</g>
<!-- User&#45;&gt;Upload -->
<g id="edge42" class="edge"><title>User&#45;&gt;Upload</title>
<path fill="none" stroke="#406c47" d="M561.448,-378.281C611.556,-362.005 697.125,-325.765 734,-260 760.761,-212.273 719.537,-151.677 690.831,-118.165"/>
<ellipse fill="none" stroke="#406c47" cx="557.537" cy="-379.518" rx="4.00001" ry="4.00001"/>
<polygon fill="#406c47" stroke="#406c47" points="690.467,-117.753 687.227,-107.276 687.16,-114.003 683.852,-110.253 683.852,-110.253 683.852,-110.253 687.16,-114.003 680.477,-113.23 690.467,-117.753 690.467,-117.753"/>
</g>
<!-- College&#45;&gt;CollegeBranchPair -->
<g id="edge52" class="edge"><title>College&#45;&gt;CollegeBranchPair</title>
<path fill="none" stroke="#426e45" d="M374.147,-362.309C372.586,-356.229 370.921,-349.745 369.34,-343.589"/>
<ellipse fill="none" stroke="#426e45" cx="375.211" cy="-366.452" rx="4.00001" ry="4.00001"/>
<polygon fill="#426e45" stroke="#426e45" points="369.28,-343.353 371.152,-332.548 368.036,-338.51 366.793,-333.667 366.793,-333.667 366.793,-333.667 368.036,-338.51 362.434,-334.786 369.28,-343.353 369.28,-343.353"/>
</g>
</g>
</svg>
