<?xml version="1.0" encoding="UTF-8" standalone="no"?>
<!DOCTYPE svg PUBLIC "-//W3C//DTD SVG 1.1//EN"
 "http://www.w3.org/Graphics/SVG/1.1/DTD/svg11.dtd">
<!-- Generated by graphviz version 2.26.3 (20100126.1600)
 -->
<!-- Title: models_diagram Pages: 1 -->

<svg width="1355pt" height="650pt"
 viewBox="0.00 0.00 1355.00 650.00" xmlns="http://www.w3.org/2000/svg" xmlns:xlink="http://www.w3.org/1999/xlink">
<g id="graph1" class="graph" transform="scale(1 1) rotate(0) translate(4 646)">
<title>models_diagram</title>
<polygon fill="white" stroke="white" points="-4,5 -4,-646 1352,-646 1352,5 -4,5"/>
<!-- _diagram_info -->
<g id="node1" class="node"><title>_diagram_info</title>
<text text-anchor="start" x="633" y="-625.8" font-family="Times Roman,serif" font-size="13.00">Models diagram</text>
<text text-anchor="start" x="633" y="-608.8" font-family="Times Roman,serif" font-size="13.00">Date: Apr 19 2015 &#45; 16:13</text>
<text text-anchor="start" x="633" y="-591.8" font-family="Times Roman,serif" font-size="13.00">Migration version: 20150418110757</text>
<text text-anchor="start" x="633" y="-574.8" font-family="Times Roman,serif" font-size="13.00">Generated by RailRoady 1.3.0</text>
<text text-anchor="start" x="633" y="-557.8" font-family="Times Roman,serif" font-size="13.00">http://railroady.prestonlee.com</text>
</g>
<!-- Category -->
<g id="node2" class="node"><title>Category</title>
<ellipse fill="none" stroke="black" cx="210" cy="-263" rx="56.0679" ry="18.3848"/>
<text text-anchor="middle" x="210" y="-259.4" font-family="Times Roman,serif" font-size="14.00">Category</text>
</g>
<!-- Bucket -->
<g id="node6" class="node"><title>Bucket</title>
<ellipse fill="none" stroke="black" cx="126" cy="-187" rx="44.7575" ry="18.3848"/>
<text text-anchor="middle" x="126" y="-183.4" font-family="Times Roman,serif" font-size="14.00">Bucket</text>
</g>
<!-- Category&#45;&gt;Bucket -->
<g id="edge2" class="edge"><title>Category&#45;&gt;Bucket</title>
<path fill="none" stroke="#86c8d6" d="M184.465,-239.897C174.283,-230.684 162.567,-220.084 152.309,-210.804"/>
<ellipse fill="none" stroke="#86c8d6" cx="187.551" cy="-242.689" rx="4.00002" ry="4.00002"/>
<polygon fill="#86c8d6" stroke="#86c8d6" points="152.214,-210.718 147.818,-200.672 148.507,-207.363 144.799,-204.009 144.799,-204.009 144.799,-204.009 148.507,-207.363 141.78,-207.345 152.214,-210.718 152.214,-210.718"/>
</g>
<!-- Course -->
<g id="node3" class="node"><title>Course</title>
<ellipse fill="none" stroke="black" cx="939" cy="-595" rx="45.9619" ry="18.3848"/>
<text text-anchor="middle" x="939" y="-591.4" font-family="Times Roman,serif" font-size="14.00">Course</text>
</g>
<!-- Course&#45;&gt;Bucket -->
<g id="edge4" class="edge"><title>Course&#45;&gt;Bucket</title>
<path fill="none" stroke="#8fef2f" d="M918.27,-571.474C908.811,-562.413 896.855,-553.036 884,-548 836.994,-529.585 480.308,-534.216 430,-530 362.129,-524.312 126,-559.109 126,-491 126,-491 126,-491 126,-263 126,-247.439 126,-230.085 126,-215.894"/>
<ellipse fill="none" stroke="#8fef2f" cx="921.286" cy="-574.501" rx="4.00002" ry="4.00002"/>
<polygon fill="#8fef2f" stroke="#8fef2f" points="126,-215.74 130.5,-205.74 126,-210.74 126,-205.74 126,-205.74 126,-205.74 126,-210.74 121.5,-205.74 126,-215.74 126,-215.74"/>
</g>
<!-- Branch -->
<g id="node7" class="node"><title>Branch</title>
<ellipse fill="none" stroke="black" cx="939" cy="-491" rx="45.9619" ry="18.3848"/>
<text text-anchor="middle" x="939" y="-487.4" font-family="Times Roman,serif" font-size="14.00">Branch</text>
</g>
<!-- Course&#45;&gt;Branch -->
<g id="edge14" class="edge"><title>Course&#45;&gt;Branch</title>
<path fill="none" stroke="#a97111" d="M939,-566.166C939,-551.816 939,-534.508 939,-520.119"/>
<polygon fill="#a97111" stroke="#a97111" points="939,-566.407 934.5,-576.407 939,-571.407 939,-576.407 939,-576.407 939,-576.407 939,-571.407 943.5,-576.407 939,-566.407 939,-566.407"/>
<polygon fill="#a97111" stroke="#a97111" points="939,-519.783 943.5,-509.783 939,-514.783 939,-509.783 939,-509.783 939,-509.783 939,-514.783 934.5,-509.783 939,-519.783 939,-519.783"/>
</g>
<!-- CourseEnrollment -->
<g id="node10" class="node"><title>CourseEnrollment</title>
<ellipse fill="none" stroke="black" cx="1220" cy="-187" rx="98.9949" ry="18.3848"/>
<text text-anchor="middle" x="1220" y="-183.4" font-family="Times Roman,serif" font-size="14.00">CourseEnrollment</text>
</g>
<!-- Course&#45;&gt;CourseEnrollment -->
<g id="edge6" class="edge"><title>Course&#45;&gt;CourseEnrollment</title>
<path fill="none" stroke="#0b3667" d="M962.06,-571.665C971.356,-563.277 982.575,-554.332 994,-548 1067.77,-507.114 1175,-575.339 1175,-491 1175,-491 1175,-491 1175,-263 1175,-244.714 1184.76,-226.973 1195.2,-213.237"/>
<ellipse fill="none" stroke="#0b3667" cx="958.883" cy="-574.621" rx="4.00002" ry="4.00002"/>
<polygon fill="#0b3667" stroke="#0b3667" points="1195.39,-212.996 1205.19,-208.07 1198.54,-209.114 1201.7,-205.233 1201.7,-205.233 1201.7,-205.233 1198.54,-209.114 1198.2,-202.396 1195.39,-212.996 1195.39,-212.996"/>
</g>
<!-- Comment -->
<g id="node13" class="node"><title>Comment</title>
<ellipse fill="none" stroke="black" cx="998" cy="-95" rx="58.1882" ry="18.3848"/>
<text text-anchor="middle" x="998" y="-91.4" font-family="Times Roman,serif" font-size="14.00">Comment</text>
</g>
<!-- Course&#45;&gt;Comment -->
<g id="edge10" class="edge"><title>Course&#45;&gt;Comment</title>
<path fill="none" stroke="#3dc589" d="M960.313,-571.452C969.728,-562.578 981.494,-553.346 994,-548 1067.07,-516.767 1347,-570.461 1347,-491 1347,-491 1347,-491 1347,-187 1347,-129.374 1166.84,-107.062 1065.4,-99.0673"/>
<ellipse fill="none" stroke="#3dc589" cx="957.333" cy="-574.383" rx="4.00002" ry="4.00002"/>
<polygon fill="#3dc589" stroke="#3dc589" points="1065.21,-99.0528 1055.58,-93.8063 1060.23,-98.6731 1055.24,-98.2933 1055.24,-98.2933 1055.24,-98.2933 1060.23,-98.6731 1054.9,-102.78 1065.21,-99.0528 1065.21,-99.0528"/>
</g>
<!-- CourseFavorite -->
<g id="node14" class="node"><title>CourseFavorite</title>
<ellipse fill="none" stroke="black" cx="274" cy="-187" rx="84.8528" ry="18.3848"/>
<text text-anchor="middle" x="274" y="-183.4" font-family="Times Roman,serif" font-size="14.00">CourseFavorite</text>
</g>
<!-- Course&#45;&gt;CourseFavorite -->
<g id="edge8" class="edge"><title>Course&#45;&gt;CourseFavorite</title>
<path fill="none" stroke="#3b13f0" d="M917.693,-571.439C908.279,-562.562 896.511,-553.332 884,-548 824.837,-522.785 308,-555.313 308,-491 308,-491 308,-491 308,-263 308,-245.688 300.558,-227.941 292.638,-213.954"/>
<ellipse fill="none" stroke="#3b13f0" cx="920.673" cy="-574.371" rx="4.00002" ry="4.00002"/>
<polygon fill="#3b13f0" stroke="#3b13f0" points="292.61,-213.907 291.289,-203.021 290.024,-209.627 287.438,-205.348 287.438,-205.348 287.438,-205.348 290.024,-209.627 283.586,-207.675 292.61,-213.907 292.61,-213.907"/>
</g>
<!-- College -->
<g id="node20" class="node"><title>College</title>
<ellipse fill="none" stroke="black" cx="983" cy="-415" rx="46.8775" ry="18.3848"/>
<text text-anchor="middle" x="983" y="-411.4" font-family="Times Roman,serif" font-size="14.00">College</text>
</g>
<!-- Course&#45;&gt;College -->
<g id="edge12" class="edge"><title>Course&#45;&gt;College</title>
<path fill="none" stroke="#62710a" d="M961.41,-569.088C973.642,-553.19 987.574,-531.761 994,-510 1000.43,-488.235 996.855,-462.629 992.129,-443.488"/>
<polygon fill="#62710a" stroke="#62710a" points="961.082,-569.5 951.329,-574.513 957.964,-573.409 954.847,-577.318 954.847,-577.318 954.847,-577.318 957.964,-573.409 958.365,-580.124 961.082,-569.5 961.082,-569.5"/>
<polygon fill="#62710a" stroke="#62710a" points="992.061,-443.236 993.784,-432.407 990.751,-438.411 989.441,-433.585 989.441,-433.585 989.441,-433.585 990.751,-438.411 985.099,-434.764 992.061,-443.236 992.061,-443.236"/>
</g>
<!-- Folder -->
<g id="node4" class="node"><title>Folder</title>
<ellipse fill="none" stroke="black" cx="107" cy="-95" rx="41.2167" ry="18.3848"/>
<text text-anchor="middle" x="107" y="-91.4" font-family="Times Roman,serif" font-size="14.00">Folder</text>
</g>
<!-- Folder&#45;&gt;Folder -->
<g id="edge18" class="edge"><title>Folder&#45;&gt;Folder</title>
<path fill="none" stroke="#aa8b2c" d="M153.256,-101.592C160.809,-100.649 166,-98.4512 166,-95 166,-91.8364 161.638,-89.7263 155.093,-88.6698"/>
<ellipse fill="none" stroke="#aa8b2c" cx="149.012" cy="-101.863" rx="4" ry="4"/>
<polygon fill="#aa8b2c" stroke="#aa8b2c" points="154.989,-88.6617 145.371,-83.3957 150.005,-88.2718 145.02,-87.882 145.02,-87.882 145.02,-87.882 150.005,-88.2718 144.669,-92.3683 154.989,-88.6617 154.989,-88.6617"/>
</g>
<!-- Document -->
<g id="node15" class="node"><title>Document</title>
<ellipse fill="none" stroke="black" cx="62" cy="-19" rx="62.2254" ry="18.3848"/>
<text text-anchor="middle" x="62" y="-15.4" font-family="Times Roman,serif" font-size="14.00">Document</text>
</g>
<!-- Folder&#45;&gt;Document -->
<g id="edge16" class="edge"><title>Folder&#45;&gt;Document</title>
<path fill="none" stroke="#f187a6" d="M92.1577,-69.933C87.6405,-62.304 82.6558,-53.8854 78.0621,-46.127"/>
<ellipse fill="none" stroke="#f187a6" cx="94.2976" cy="-73.5472" rx="4.00002" ry="4.00002"/>
<polygon fill="#f187a6" stroke="#f187a6" points="77.9954,-46.0144 76.7726,-35.1169 75.4479,-41.712 72.9004,-37.4096 72.9004,-37.4096 72.9004,-37.4096 75.4479,-41.712 69.0283,-39.7023 77.9954,-46.0144 77.9954,-46.0144"/>
</g>
<!-- CollegeBranchPair -->
<g id="node5" class="node"><title>CollegeBranchPair</title>
<ellipse fill="none" stroke="black" cx="908" cy="-339" rx="99.9096" ry="18.3848"/>
<text text-anchor="middle" x="908" y="-335.4" font-family="Times Roman,serif" font-size="14.00">CollegeBranchPair</text>
</g>
<!-- CollegeBranchPair&#45;&gt;Course -->
<g id="edge20" class="edge"><title>CollegeBranchPair&#45;&gt;Course</title>
<path fill="none" stroke="#3f1dd0" d="M897.557,-365.24C885.545,-399.246 869.262,-460.093 884,-510 890.426,-531.761 904.358,-553.19 916.59,-569.088"/>
<ellipse fill="none" stroke="#3f1dd0" cx="898.974" cy="-361.356" rx="4.00001" ry="4.00001"/>
<polygon fill="#3f1dd0" stroke="#3f1dd0" points="916.918,-569.5 919.635,-580.124 920.036,-573.409 923.153,-577.318 923.153,-577.318 923.153,-577.318 920.036,-573.409 926.671,-574.513 916.918,-569.5 916.918,-569.5"/>
</g>
<!-- CollegeBranchPair&#45;&gt;Comment -->
<g id="edge22" class="edge"><title>CollegeBranchPair&#45;&gt;Comment</title>
<path fill="none" stroke="#9acda5" d="M980.832,-322.846C1019.97,-312.532 1062.51,-298.1 1074,-282 1103.44,-240.764 1093.86,-214.612 1074,-168 1065.39,-147.791 1048.14,-130.48 1032.24,-117.794"/>
<ellipse fill="none" stroke="#9acda5" cx="976.934" cy="-323.852" rx="4.00001" ry="4.00001"/>
<polygon fill="#9acda5" stroke="#9acda5" points="1032.06,-117.655 1026.84,-108.013 1028.09,-114.623 1024.11,-111.591 1024.11,-111.591 1024.11,-111.591 1028.09,-114.623 1021.38,-115.17 1032.06,-117.655 1032.06,-117.655"/>
</g>
<!-- User -->
<g id="node18" class="node"><title>User</title>
<ellipse fill="none" stroke="black" cx="699" cy="-263" rx="33.9411" ry="18.3848"/>
<text text-anchor="middle" x="699" y="-259.4" font-family="Times Roman,serif" font-size="14.00">User</text>
</g>
<!-- CollegeBranchPair&#45;&gt;User -->
<g id="edge26" class="edge"><title>CollegeBranchPair&#45;&gt;User</title>
<path fill="none" stroke="#0d33a2" d="M849.521,-320.274C817.519,-309.688 777.309,-295.834 742,-282 739.606,-281.062 737.151,-280.067 734.684,-279.044"/>
<ellipse fill="none" stroke="#0d33a2" cx="853.673" cy="-321.641" rx="4.00001" ry="4.00001"/>
<polygon fill="#0d33a2" stroke="#0d33a2" points="734.429,-278.935 726.994,-270.875 729.829,-276.975 725.23,-275.014 725.23,-275.014 725.23,-275.014 729.829,-276.975 723.465,-279.154 734.429,-278.935 734.429,-278.935"/>
</g>
<!-- UserCollegeBranchEnrollment -->
<g id="node33" class="node"><title>UserCollegeBranchEnrollment</title>
<ellipse fill="none" stroke="black" cx="908" cy="-263" rx="156.978" ry="18.3848"/>
<text text-anchor="middle" x="908" y="-259.4" font-family="Times Roman,serif" font-size="14.00">UserCollegeBranchEnrollment</text>
</g>
<!-- CollegeBranchPair&#45;&gt;UserCollegeBranchEnrollment -->
<g id="edge24" class="edge"><title>CollegeBranchPair&#45;&gt;UserCollegeBranchEnrollment</title>
<path fill="none" stroke="#899f97" d="M908,-312.073C908,-305.449 908,-298.332 908,-291.63"/>
<ellipse fill="none" stroke="#899f97" cx="908" cy="-316.213" rx="4" ry="4"/>
<polygon fill="#899f97" stroke="#899f97" points="908,-291.57 912.5,-281.57 908,-286.57 908,-281.57 908,-281.57 908,-281.57 908,-286.57 903.5,-281.57 908,-291.57 908,-291.57"/>
</g>
<!-- Bucket&#45;&gt;Folder -->
<g id="edge30" class="edge"><title>Bucket&#45;&gt;Folder</title>
<path fill="none" stroke="#50a939" d="M120.516,-160.447C118.119,-148.84 115.304,-135.21 112.866,-123.401"/>
<ellipse fill="none" stroke="#50a939" cx="121.346" cy="-164.465" rx="4.00001" ry="4.00001"/>
<polygon fill="#50a939" stroke="#50a939" points="112.862,-123.383 115.246,-112.68 111.851,-118.487 110.839,-113.59 110.839,-113.59 110.839,-113.59 111.851,-118.487 106.432,-114.5 112.862,-123.383 112.862,-123.383"/>
</g>
<!-- ReportedInappropriate -->
<g id="node8" class="node"><title>ReportedInappropriate</title>
<ellipse fill="none" stroke="black" cx="681" cy="-95" rx="121.122" ry="18.3848"/>
<text text-anchor="middle" x="681" y="-91.4" font-family="Times Roman,serif" font-size="14.00">ReportedInappropriate</text>
</g>
<!-- Bucket&#45;&gt;ReportedInappropriate -->
<g id="edge38" class="edge"><title>Bucket&#45;&gt;ReportedInappropriate</title>
<path fill="none" stroke="#3a1c68" d="M166.925,-171.712C171.305,-170.343 175.722,-169.072 180,-168 231.034,-155.214 245.129,-158.801 297,-150 340.229,-142.665 350.638,-138.501 394,-132 463.459,-121.586 481.354,-123.08 551,-114 561.933,-112.575 573.373,-111.01 584.738,-109.41"/>
<ellipse fill="none" stroke="#3a1c68" cx="162.922" cy="-173.019" rx="4.00001" ry="4.00001"/>
<polygon fill="#3a1c68" stroke="#3a1c68" points="584.79,-109.402 595.324,-112.452 589.741,-108.7 594.691,-107.997 594.691,-107.997 594.691,-107.997 589.741,-108.7 594.059,-103.541 584.79,-109.402 584.79,-109.402"/>
</g>
<!-- Download -->
<g id="node9" class="node"><title>Download</title>
<ellipse fill="none" stroke="black" cx="245" cy="-95" rx="60.8112" ry="18.3848"/>
<text text-anchor="middle" x="245" y="-91.4" font-family="Times Roman,serif" font-size="14.00">Download</text>
</g>
<!-- Bucket&#45;&gt;Download -->
<g id="edge34" class="edge"><title>Bucket&#45;&gt;Download</title>
<path fill="none" stroke="#31d5e6" d="M150.267,-164.464C161.714,-154.189 175.745,-142.093 189,-132 195.453,-127.086 202.538,-122.109 209.433,-117.466"/>
<ellipse fill="none" stroke="#31d5e6" cx="147.161" cy="-167.276" rx="4.00002" ry="4.00002"/>
<polygon fill="#31d5e6" stroke="#31d5e6" points="209.664,-117.313 220.487,-115.546 213.834,-114.553 218.003,-111.794 218.003,-111.794 218.003,-111.794 213.834,-114.553 215.52,-108.041 209.664,-117.313 209.664,-117.313"/>
</g>
<!-- Bucket&#45;&gt;Comment -->
<g id="edge36" class="edge"><title>Bucket&#45;&gt;Comment</title>
<path fill="none" stroke="#01e5d0" d="M166.146,-171.629C170.77,-170.232 175.456,-168.977 180,-168 214.397,-160.602 775.969,-117.278 811,-114 851.365,-110.222 896.593,-105.637 932.458,-101.917"/>
<ellipse fill="none" stroke="#01e5d0" cx="162.267" cy="-172.872" rx="4.00001" ry="4.00001"/>
<polygon fill="#01e5d0" stroke="#01e5d0" points="932.845,-101.876 943.256,-105.318 937.818,-101.359 942.791,-100.842 942.791,-100.842 942.791,-100.842 937.818,-101.359 942.325,-96.3661 932.845,-101.876 932.845,-101.876"/>
</g>
<!-- Bucket&#45;&gt;Document -->
<g id="edge32" class="edge"><title>Bucket&#45;&gt;Document</title>
<path fill="none" stroke="#1c7055" d="M96.9749,-165.44C81.9642,-152.42 65.1221,-134.417 57,-114 48.565,-92.7965 50.6915,-66.8077 54.4362,-47.3756"/>
<ellipse fill="none" stroke="#1c7055" cx="100.198" cy="-168.139" rx="4.00002" ry="4.00002"/>
<polygon fill="#1c7055" stroke="#1c7055" points="54.437,-47.3715 60.9575,-38.5549 55.4985,-42.4855 56.5601,-37.5995 56.5601,-37.5995 56.5601,-37.5995 55.4985,-42.4855 52.1626,-36.6441 54.437,-47.3715 54.437,-47.3715"/>
</g>
<!-- ActsAsVotable::Vote -->
<g id="node36" class="node"><title>ActsAsVotable::Vote</title>
<ellipse fill="none" stroke="black" cx="433" cy="-95" rx="108.894" ry="18.3848"/>
<text text-anchor="middle" x="433" y="-91.4" font-family="Times Roman,serif" font-size="14.00">ActsAsVotable::Vote</text>
</g>
<!-- Bucket&#45;&gt;ActsAsVotable::Vote -->
<g id="edge28" class="edge"><title>Bucket&#45;&gt;ActsAsVotable::Vote</title>
<path fill="none" stroke="#640650" d="M158.026,-167.4C178.736,-155.529 206.653,-140.991 233,-132 244.06,-128.226 297.162,-118.461 345.868,-109.91"/>
<ellipse fill="none" stroke="#640650" cx="154.474" cy="-169.465" rx="4.00002" ry="4.00002"/>
<polygon fill="#640650" stroke="#640650" points="346.006,-109.886 356.632,-112.596 350.931,-109.025 355.856,-108.163 355.856,-108.163 355.856,-108.163 350.931,-109.025 355.081,-103.73 346.006,-109.886 346.006,-109.886"/>
<text text-anchor="middle" x="265" y="-137.4" font-family="Times Roman,serif" font-size="14.00">votes_for</text>
</g>
<!-- Branch&#45;&gt;CollegeBranchPair -->
<g id="edge40" class="edge"><title>Branch&#45;&gt;CollegeBranchPair</title>
<path fill="none" stroke="#c7d51f" d="M933.361,-464.49C931.334,-454.89 929.044,-443.96 927,-434 922.427,-411.722 917.384,-386.475 913.644,-367.61"/>
<ellipse fill="none" stroke="#c7d51f" cx="934.233" cy="-468.614" rx="4.00001" ry="4.00001"/>
<polygon fill="#c7d51f" stroke="#c7d51f" points="913.6,-367.389 916.072,-356.705 912.629,-362.484 911.658,-357.579 911.658,-357.579 911.658,-357.579 912.629,-362.484 907.244,-358.453 913.6,-367.389 913.6,-367.389"/>
</g>
<!-- Branch&#45;&gt;College -->
<g id="edge42" class="edge"><title>Branch&#45;&gt;College</title>
<path fill="none" stroke="#c7b76a" d="M954.802,-463.706C958.832,-456.745 963.164,-449.261 967.195,-442.3"/>
<polygon fill="#c7b76a" stroke="#c7b76a" points="954.662,-463.948 945.757,-470.348 952.156,-468.275 949.651,-472.603 949.651,-472.603 949.651,-472.603 952.156,-468.275 953.546,-474.857 954.662,-463.948 954.662,-463.948"/>
<polygon fill="#c7b76a" stroke="#c7b76a" points="967.437,-441.882 976.341,-435.483 969.942,-437.555 972.447,-433.228 972.447,-433.228 972.447,-433.228 969.942,-437.555 968.552,-430.973 967.437,-441.882 967.437,-441.882"/>
</g>
<!-- Ability -->
<g id="node11" class="node"><title>Ability</title>
<polygon fill="none" stroke="black" points="1063,-613 1003,-613 1003,-577 1063,-577 1063,-613"/>
<text text-anchor="middle" x="1033" y="-591.4" font-family="Times Roman,serif" font-size="14.00">Ability</text>
</g>
<!-- CommentResponse -->
<g id="node12" class="node"><title>CommentResponse</title>
<ellipse fill="none" stroke="black" cx="998" cy="-19" rx="104.151" ry="18.3848"/>
<text text-anchor="middle" x="998" y="-15.4" font-family="Times Roman,serif" font-size="14.00">CommentResponse</text>
</g>
<!-- Comment&#45;&gt;CommentResponse -->
<g id="edge44" class="edge"><title>Comment&#45;&gt;CommentResponse</title>
<path fill="none" stroke="#9023fe" d="M998,-68.0731C998,-61.4485 998,-54.332 998,-47.6302"/>
<ellipse fill="none" stroke="#9023fe" cx="998" cy="-72.2135" rx="4" ry="4"/>
<polygon fill="#9023fe" stroke="#9023fe" points="998,-47.5704 1002.5,-37.5704 998,-42.5704 998,-37.5704 998,-37.5704 998,-37.5704 998,-42.5704 993.5,-37.5705 998,-47.5704 998,-47.5704"/>
</g>
<!-- Notification -->
<g id="node16" class="node"><title>Notification</title>
<ellipse fill="none" stroke="black" cx="998" cy="-187" rx="67.1751" ry="18.3848"/>
<text text-anchor="middle" x="998" y="-183.4" font-family="Times Roman,serif" font-size="14.00">Notification</text>
</g>
<!-- InappropriateType -->
<g id="node17" class="node"><title>InappropriateType</title>
<ellipse fill="none" stroke="black" cx="588" cy="-187" rx="99.201" ry="18.3848"/>
<text text-anchor="middle" x="588" y="-183.4" font-family="Times Roman,serif" font-size="14.00">InappropriateType</text>
</g>
<!-- InappropriateType&#45;&gt;ReportedInappropriate -->
<g id="edge46" class="edge"><title>InappropriateType&#45;&gt;ReportedInappropriate</title>
<path fill="none" stroke="#be005c" d="M612.758,-162.508C625.733,-149.673 641.622,-133.955 654.803,-120.916"/>
<ellipse fill="none" stroke="#be005c" cx="609.664" cy="-165.569" rx="4.00002" ry="4.00002"/>
<polygon fill="#be005c" stroke="#be005c" points="655.099,-120.623 665.373,-116.789 658.653,-117.106 662.208,-113.59 662.208,-113.59 662.208,-113.59 658.653,-117.106 659.043,-110.391 655.099,-120.623 655.099,-120.623"/>
</g>
<!-- User&#45;&gt;Bucket -->
<g id="edge54" class="edge"><title>User&#45;&gt;Bucket</title>
<path fill="none" stroke="#ddd26d" d="M656.612,-261.624C567.377,-258.014 354.027,-245.621 180,-206 176.184,-205.131 172.265,-204.08 168.364,-202.924"/>
<ellipse fill="none" stroke="#ddd26d" cx="660.858" cy="-261.79" rx="4" ry="4"/>
<polygon fill="#ddd26d" stroke="#ddd26d" points="168.305,-202.905 160.139,-195.586 163.54,-201.39 158.775,-199.875 158.775,-199.875 158.775,-199.875 163.54,-201.39 157.412,-204.163 168.305,-202.905 168.305,-202.905"/>
</g>
<!-- User&#45;&gt;ReportedInappropriate -->
<g id="edge60" class="edge"><title>User&#45;&gt;ReportedInappropriate</title>
<path fill="none" stroke="#4e2d6d" d="M699.373,-236.136C699.34,-217.061 698.692,-190.881 696,-168 694.27,-153.298 691.091,-137.156 688.102,-123.798"/>
<ellipse fill="none" stroke="#4e2d6d" cx="699.361" cy="-240.363" rx="4" ry="4"/>
<polygon fill="#4e2d6d" stroke="#4e2d6d" points="688.034,-123.505 690.162,-112.747 686.906,-118.634 685.778,-113.763 685.778,-113.763 685.778,-113.763 686.906,-118.634 681.394,-114.778 688.034,-123.505 688.034,-123.505"/>
</g>
<!-- User&#45;&gt;Download -->
<g id="edge58" class="edge"><title>User&#45;&gt;Download</title>
<path fill="none" stroke="#d6b9f4" d="M656.833,-259.595C609.777,-255.035 531.742,-245.192 467,-226 418.108,-211.506 410.811,-195.708 368,-168 339.995,-149.875 307.511,-130.67 282.961,-116.51"/>
<ellipse fill="none" stroke="#d6b9f4" cx="660.982" cy="-259.985" rx="4" ry="4"/>
<polygon fill="#d6b9f4" stroke="#d6b9f4" points="282.637,-116.324 276.208,-107.441 278.302,-113.834 273.966,-111.343 273.966,-111.343 273.966,-111.343 278.302,-113.834 271.724,-115.245 282.637,-116.324 282.637,-116.324"/>
</g>
<!-- User&#45;&gt;CourseEnrollment -->
<g id="edge52" class="edge"><title>User&#45;&gt;CourseEnrollment</title>
<path fill="none" stroke="#39b05e" d="M731.491,-247.349C734.984,-246.058 738.53,-244.905 742,-244 824.508,-222.491 848.293,-235.743 933,-226 999.918,-218.303 1075.39,-207.983 1132.14,-199.892"/>
<ellipse fill="none" stroke="#39b05e" cx="727.693" cy="-248.866" rx="4.00001" ry="4.00001"/>
<polygon fill="#39b05e" stroke="#39b05e" points="1132.25,-199.876 1142.79,-202.914 1137.2,-199.168 1142.15,-198.46 1142.15,-198.46 1142.15,-198.46 1137.2,-199.168 1141.51,-194.005 1132.25,-199.876 1132.25,-199.876"/>
</g>
<!-- User&#45;&gt;Comment -->
<g id="edge50" class="edge"><title>User&#45;&gt;Comment</title>
<path fill="none" stroke="#b7f697" d="M732.75,-247.504C735.853,-246.257 738.969,-245.068 742,-244 803.619,-222.288 827.416,-238.657 884,-206 904.686,-194.061 904.942,-184.718 922,-168 938.579,-151.752 957.393,-133.677 972.155,-119.578"/>
<ellipse fill="none" stroke="#b7f697" cx="728.811" cy="-249.149" rx="4.00001" ry="4.00001"/>
<polygon fill="#b7f697" stroke="#b7f697" points="972.235,-119.501 982.577,-115.854 975.853,-116.049 979.471,-112.598 979.471,-112.598 979.471,-112.598 975.853,-116.049 976.365,-109.342 972.235,-119.501 972.235,-119.501"/>
</g>
<!-- User&#45;&gt;CourseFavorite -->
<g id="edge56" class="edge"><title>User&#45;&gt;CourseFavorite</title>
<path fill="none" stroke="#afeb5a" d="M656.588,-261.724C593.778,-259.044 472.71,-250.839 373,-226 355.019,-221.521 335.928,-214.564 319.359,-207.758"/>
<ellipse fill="none" stroke="#afeb5a" cx="660.692" cy="-261.891" rx="4" ry="4"/>
<polygon fill="#afeb5a" stroke="#afeb5a" points="319.14,-207.666 311.667,-199.641 314.531,-205.727 309.922,-203.789 309.922,-203.789 309.922,-203.789 314.531,-205.727 308.177,-207.937 319.14,-207.666 319.14,-207.666"/>
</g>
<!-- User&#45;&gt;Notification -->
<g id="edge64" class="edge"><title>User&#45;&gt;Notification</title>
<path fill="none" stroke="#78665c" d="M731.5,-247.38C734.991,-246.083 738.534,-244.919 742,-244 817.575,-223.954 841.763,-247.278 917,-226 931.623,-221.864 946.84,-215.233 960.084,-208.603"/>
<ellipse fill="none" stroke="#78665c" cx="727.702" cy="-248.901" rx="4.00001" ry="4.00001"/>
<polygon fill="#78665c" stroke="#78665c" points="960.461,-208.407 971.411,-207.807 964.901,-206.109 969.342,-203.81 969.342,-203.81 969.342,-203.81 964.901,-206.109 967.273,-199.814 960.461,-208.407 960.461,-208.407"/>
</g>
<!-- Suggestion -->
<g id="node19" class="node"><title>Suggestion</title>
<ellipse fill="none" stroke="black" cx="809" cy="-187" rx="65.7609" ry="18.3848"/>
<text text-anchor="middle" x="809" y="-183.4" font-family="Times Roman,serif" font-size="14.00">Suggestion</text>
</g>
<!-- User&#45;&gt;Suggestion -->
<g id="edge62" class="edge"><title>User&#45;&gt;Suggestion</title>
<path fill="none" stroke="#0ef37c" d="M726.927,-243.705C741.762,-233.455 760.099,-220.786 775.675,-210.024"/>
<ellipse fill="none" stroke="#0ef37c" cx="723.5" cy="-246.073" rx="4.00002" ry="4.00002"/>
<polygon fill="#0ef37c" stroke="#0ef37c" points="775.778,-209.954 786.563,-207.972 779.891,-207.112 784.005,-204.269 784.005,-204.269 784.005,-204.269 779.891,-207.112 781.447,-200.567 775.778,-209.954 775.778,-209.954"/>
</g>
<!-- User&#45;&gt;ActsAsVotable::Vote -->
<g id="edge48" class="edge"><title>User&#45;&gt;ActsAsVotable::Vote</title>
<path fill="none" stroke="#9a303e" d="M657.158,-259.642C591.728,-253.461 469.783,-237.888 442,-206 422.552,-183.679 423.149,-148.347 426.77,-123.555"/>
<ellipse fill="none" stroke="#9a303e" cx="661.248" cy="-260.018" rx="4" ry="4"/>
<polygon fill="#9a303e" stroke="#9a303e" points="426.779,-123.502 432.894,-114.399 427.618,-118.573 428.457,-113.644 428.457,-113.644 428.457,-113.644 427.618,-118.573 424.021,-112.889 426.779,-123.502 426.779,-123.502"/>
<text text-anchor="middle" x="461" y="-183.4" font-family="Times Roman,serif" font-size="14.00">votes</text>
</g>
<!-- College&#45;&gt;CollegeBranchPair -->
<g id="edge66" class="edge"><title>College&#45;&gt;CollegeBranchPair</title>
<path fill="none" stroke="#8cbcab" d="M960.127,-391.822C951.568,-383.149 941.802,-373.253 933.056,-364.39"/>
<ellipse fill="none" stroke="#8cbcab" cx="963.172" cy="-394.907" rx="4.00002" ry="4.00002"/>
<polygon fill="#8cbcab" stroke="#8cbcab" points="933.021,-364.355 929.2,-354.076 929.509,-360.796 925.997,-357.237 925.997,-357.237 925.997,-357.237 929.509,-360.796 922.794,-360.398 933.021,-364.355 933.021,-364.355"/>

</g>
</g>
</svg>
