<?xml version="1.0" encoding="UTF-8" standalone="no"?>
<!DOCTYPE svg PUBLIC "-//W3C//DTD SVG 1.1//EN"
 "http://www.w3.org/Graphics/SVG/1.1/DTD/svg11.dtd">
<!-- Generated by graphviz version 2.26.3 (20100126.1600)
 -->
<!-- Title: models_diagram Pages: 1 -->
<svg width="1026pt" height="1610pt"
 viewBox="0.00 0.00 1026.00 1610.00" xmlns="http://www.w3.org/2000/svg" xmlns:xlink="http://www.w3.org/1999/xlink">
<g id="graph1" class="graph" transform="scale(1 1) rotate(0) translate(4 1606)">
<title>models_diagram</title>
<polygon fill="white" stroke="white" points="-4,5 -4,-1606 1023,-1606 1023,5 -4,5"/>
<!-- _diagram_info -->
<g id="node1" class="node"><title>_diagram_info</title>
<text text-anchor="start" x="16" y="-1497.8" font-family="Times Roman,serif" font-size="13.00">Models diagram</text>
<text text-anchor="start" x="16" y="-1480.8" font-family="Times Roman,serif" font-size="13.00">Date: Mar 12 2015 &#45; 23:39</text>
<text text-anchor="start" x="16" y="-1463.8" font-family="Times Roman,serif" font-size="13.00">Migration version: 20150312102110</text>
<text text-anchor="start" x="16" y="-1446.8" font-family="Times Roman,serif" font-size="13.00">Generated by RailRoady 1.3.0</text>
<text text-anchor="start" x="16" y="-1429.8" font-family="Times Roman,serif" font-size="13.00">http://railroady.prestonlee.com</text>
</g>
<!-- Category -->
<g id="node2" class="node"><title>Category</title>
<polyline fill="none" stroke="black" points="717.5,-604 858.5,-604 "/>
<path fill="none" stroke="black" d="M858.5,-604C864.5,-604 870.5,-610 870.5,-616"/>
<polyline fill="none" stroke="black" points="870.5,-616 870.5,-698 "/>
<path fill="none" stroke="black" d="M870.5,-698C870.5,-704 864.5,-710 858.5,-710"/>
<polyline fill="none" stroke="black" points="858.5,-710 717.5,-710 "/>
<path fill="none" stroke="black" d="M717.5,-710C711.5,-710 705.5,-704 705.5,-698"/>
<polyline fill="none" stroke="black" points="705.5,-698 705.5,-616 "/>
<path fill="none" stroke="black" d="M705.5,-616C705.5,-610 711.5,-604 717.5,-604"/>
<text text-anchor="middle" x="788" y="-693.4" font-family="Times Roman,serif" font-size="14.00">Category</text>
<polyline fill="none" stroke="black" points="705.5,-684 870.5,-684 "/>
<text text-anchor="start" x="713.5" y="-667.4" font-family="Times Roman,serif" font-size="14.00">id :integer</text>
<text text-anchor="start" x="713.5" y="-649.4" font-family="Times Roman,serif" font-size="14.00">category :string</text>
<text text-anchor="start" x="713.5" y="-631.4" font-family="Times Roman,serif" font-size="14.00">created_at :datetime</text>
<text text-anchor="start" x="713.5" y="-613.4" font-family="Times Roman,serif" font-size="14.00">updated_at :datetime</text>
</g>
<!-- Bucket -->
<g id="node6" class="node"><title>Bucket</title>
<polyline fill="none" stroke="black" points="669.5,-379 810.5,-379 "/>
<path fill="none" stroke="black" d="M810.5,-379C816.5,-379 822.5,-385 822.5,-391"/>
<polyline fill="none" stroke="black" points="822.5,-391 822.5,-527 "/>
<path fill="none" stroke="black" d="M822.5,-527C822.5,-533 816.5,-539 810.5,-539"/>
<polyline fill="none" stroke="black" points="810.5,-539 669.5,-539 "/>
<path fill="none" stroke="black" d="M669.5,-539C663.5,-539 657.5,-533 657.5,-527"/>
<polyline fill="none" stroke="black" points="657.5,-527 657.5,-391 "/>
<path fill="none" stroke="black" d="M657.5,-391C657.5,-385 663.5,-379 669.5,-379"/>
<text text-anchor="middle" x="740" y="-522.4" font-family="Times Roman,serif" font-size="14.00">Bucket</text>
<polyline fill="none" stroke="black" points="657.5,-513 822.5,-513 "/>
<text text-anchor="start" x="665.5" y="-496.4" font-family="Times Roman,serif" font-size="14.00">id :integer</text>
<text text-anchor="start" x="665.5" y="-478.4" font-family="Times Roman,serif" font-size="14.00">name :string</text>
<text text-anchor="start" x="665.5" y="-460.4" font-family="Times Roman,serif" font-size="14.00">description :text</text>
<text text-anchor="start" x="665.5" y="-442.4" font-family="Times Roman,serif" font-size="14.00">category_id :integer</text>
<text text-anchor="start" x="665.5" y="-424.4" font-family="Times Roman,serif" font-size="14.00">course_id :integer</text>
<text text-anchor="start" x="665.5" y="-406.4" font-family="Times Roman,serif" font-size="14.00">created_at :datetime</text>
<text text-anchor="start" x="665.5" y="-388.4" font-family="Times Roman,serif" font-size="14.00">updated_at :datetime</text>
</g>
<!-- Category&#45;&gt;Bucket -->
<g id="edge2" class="edge"><title>Category&#45;&gt;Bucket</title>
<path fill="none" stroke="#3f69fc" d="M773.173,-595.84C769.569,-580.973 765.641,-564.767 761.788,-548.877"/>
<ellipse fill="none" stroke="#3f69fc" cx="774.194" cy="-600.052" rx="4.00001" ry="4.00001"/>
<polygon fill="#3f69fc" stroke="#3f69fc" points="761.76,-548.758 763.777,-537.979 760.581,-543.898 759.403,-539.039 759.403,-539.039 759.403,-539.039 760.581,-543.898 755.03,-540.099 761.76,-548.758 761.76,-548.758"/>
</g>
<!-- Course -->
<g id="node3" class="node"><title>Course</title>
<polyline fill="none" stroke="black" points="102,-577 308,-577 "/>
<path fill="none" stroke="black" d="M308,-577C314,-577 320,-583 320,-589"/>
<polyline fill="none" stroke="black" points="320,-589 320,-725 "/>
<path fill="none" stroke="black" d="M320,-725C320,-731 314,-737 308,-737"/>
<polyline fill="none" stroke="black" points="308,-737 102,-737 "/>
<path fill="none" stroke="black" d="M102,-737C96,-737 90,-731 90,-725"/>
<polyline fill="none" stroke="black" points="90,-725 90,-589 "/>
<path fill="none" stroke="black" d="M90,-589C90,-583 96,-577 102,-577"/>
<text text-anchor="middle" x="205" y="-720.4" font-family="Times Roman,serif" font-size="14.00">Course</text>
<polyline fill="none" stroke="black" points="90,-711 320,-711 "/>
<text text-anchor="start" x="98" y="-694.4" font-family="Times Roman,serif" font-size="14.00">id :integer</text>
<text text-anchor="start" x="98" y="-676.4" font-family="Times Roman,serif" font-size="14.00">name :string</text>
<text text-anchor="start" x="98" y="-658.4" font-family="Times Roman,serif" font-size="14.00">code :string</text>
<text text-anchor="start" x="98" y="-640.4" font-family="Times Roman,serif" font-size="14.00">professors :text</text>
<text text-anchor="start" x="98" y="-622.4" font-family="Times Roman,serif" font-size="14.00">college_branch_pair_id :integer</text>
<text text-anchor="start" x="98" y="-604.4" font-family="Times Roman,serif" font-size="14.00">created_at :datetime</text>
<text text-anchor="start" x="98" y="-586.4" font-family="Times Roman,serif" font-size="14.00">updated_at :datetime</text>
</g>
<!-- Course&#45;&gt;Bucket -->
<g id="edge4" class="edge"><title>Course&#45;&gt;Bucket</title>
<path fill="none" stroke="#9d1b95" d="M327.913,-576.401C328.276,-576.266 328.638,-576.132 329,-576 451.803,-531.082 498.629,-586.082 621,-540 630.209,-536.532 639.401,-532.215 648.362,-527.391"/>
<ellipse fill="none" stroke="#9d1b95" cx="324.03" cy="-577.936" rx="4.00001" ry="4.00001"/>
<polygon fill="#9d1b95" stroke="#9d1b95" points="648.517,-527.304 659.44,-526.337 652.878,-524.858 657.239,-522.412 657.239,-522.412 657.239,-522.412 652.878,-524.858 655.037,-518.487 648.517,-527.304 648.517,-527.304"/>
</g>
<!-- CourseEnrollment -->
<g id="node11" class="node"><title>CourseEnrollment</title>
<polyline fill="none" stroke="black" points="222.5,-397 363.5,-397 "/>
<path fill="none" stroke="black" d="M363.5,-397C369.5,-397 375.5,-403 375.5,-409"/>
<polyline fill="none" stroke="black" points="375.5,-409 375.5,-509 "/>
<path fill="none" stroke="black" d="M375.5,-509C375.5,-515 369.5,-521 363.5,-521"/>
<polyline fill="none" stroke="black" points="363.5,-521 222.5,-521 "/>
<path fill="none" stroke="black" d="M222.5,-521C216.5,-521 210.5,-515 210.5,-509"/>
<polyline fill="none" stroke="black" points="210.5,-509 210.5,-409 "/>
<path fill="none" stroke="black" d="M210.5,-409C210.5,-403 216.5,-397 222.5,-397"/>
<text text-anchor="middle" x="293" y="-504.4" font-family="Times Roman,serif" font-size="14.00">CourseEnrollment</text>
<polyline fill="none" stroke="black" points="210.5,-495 375.5,-495 "/>
<text text-anchor="start" x="218.5" y="-478.4" font-family="Times Roman,serif" font-size="14.00">id :integer</text>
<text text-anchor="start" x="218.5" y="-460.4" font-family="Times Roman,serif" font-size="14.00">user_id :integer</text>
<text text-anchor="start" x="218.5" y="-442.4" font-family="Times Roman,serif" font-size="14.00">course_id :integer</text>
<text text-anchor="start" x="218.5" y="-424.4" font-family="Times Roman,serif" font-size="14.00">created_at :datetime</text>
<text text-anchor="start" x="218.5" y="-406.4" font-family="Times Roman,serif" font-size="14.00">updated_at :datetime</text>
</g>
<!-- Course&#45;&gt;CourseEnrollment -->
<g id="edge6" class="edge"><title>Course&#45;&gt;CourseEnrollment</title>
<path fill="none" stroke="#9eb916" d="M243.969,-569.32C249.724,-556.371 255.596,-543.16 261.183,-530.589"/>
<ellipse fill="none" stroke="#9eb916" cx="242.291" cy="-573.096" rx="4.00002" ry="4.00002"/>
<polygon fill="#9eb916" stroke="#9eb916" points="261.332,-530.253 269.505,-522.943 263.362,-525.684 265.393,-521.115 265.393,-521.115 265.393,-521.115 263.362,-525.684 261.281,-519.288 261.332,-530.253 261.332,-530.253"/>
</g>
<!-- Comment -->
<g id="node13" class="node"><title>Comment</title>
<polyline fill="none" stroke="black" points="12,-181 184,-181 "/>
<path fill="none" stroke="black" d="M184,-181C190,-181 196,-187 196,-193"/>
<polyline fill="none" stroke="black" points="196,-193 196,-329 "/>
<path fill="none" stroke="black" d="M196,-329C196,-335 190,-341 184,-341"/>
<polyline fill="none" stroke="black" points="184,-341 12,-341 "/>
<path fill="none" stroke="black" d="M12,-341C6,-341 0,-335 0,-329"/>
<polyline fill="none" stroke="black" points="0,-329 0,-193 "/>
<path fill="none" stroke="black" d="M0,-193C0,-187 6,-181 12,-181"/>
<text text-anchor="middle" x="98" y="-324.4" font-family="Times Roman,serif" font-size="14.00">Comment</text>
<polyline fill="none" stroke="black" points="0,-315 196,-315 "/>
<text text-anchor="start" x="8" y="-298.4" font-family="Times Roman,serif" font-size="14.00">id :integer</text>
<text text-anchor="start" x="8" y="-280.4" font-family="Times Roman,serif" font-size="14.00">user_id :integer</text>
<text text-anchor="start" x="8" y="-262.4" font-family="Times Roman,serif" font-size="14.00">message :string</text>
<text text-anchor="start" x="8" y="-244.4" font-family="Times Roman,serif" font-size="14.00">commentable_id :integer</text>
<text text-anchor="start" x="8" y="-226.4" font-family="Times Roman,serif" font-size="14.00">commentable_type :string</text>
<text text-anchor="start" x="8" y="-208.4" font-family="Times Roman,serif" font-size="14.00">created_at :datetime</text>
<text text-anchor="start" x="8" y="-190.4" font-family="Times Roman,serif" font-size="14.00">updated_at :datetime</text>
</g>
<!-- Course&#45;&gt;Comment -->
<g id="edge10" class="edge"><title>Course&#45;&gt;Comment</title>
<path fill="none" stroke="#1672a0" d="M181.248,-569.095C163.719,-504.222 139.944,-416.233 122.29,-350.895"/>
<ellipse fill="none" stroke="#1672a0" cx="182.304" cy="-573.002" rx="4.00001" ry="4.00001"/>
<polygon fill="#1672a0" stroke="#1672a0" points="122.229,-350.671 123.965,-339.843 120.925,-345.844 119.621,-341.017 119.621,-341.017 119.621,-341.017 120.925,-345.844 115.277,-342.191 122.229,-350.671 122.229,-350.671"/>
</g>
<!-- CourseFavorite -->
<g id="node14" class="node"><title>CourseFavorite</title>
<polyline fill="none" stroke="black" points="459.5,-397 600.5,-397 "/>
<path fill="none" stroke="black" d="M600.5,-397C606.5,-397 612.5,-403 612.5,-409"/>
<polyline fill="none" stroke="black" points="612.5,-409 612.5,-509 "/>
<path fill="none" stroke="black" d="M612.5,-509C612.5,-515 606.5,-521 600.5,-521"/>
<polyline fill="none" stroke="black" points="600.5,-521 459.5,-521 "/>
<path fill="none" stroke="black" d="M459.5,-521C453.5,-521 447.5,-515 447.5,-509"/>
<polyline fill="none" stroke="black" points="447.5,-509 447.5,-409 "/>
<path fill="none" stroke="black" d="M447.5,-409C447.5,-403 453.5,-397 459.5,-397"/>
<text text-anchor="middle" x="530" y="-504.4" font-family="Times Roman,serif" font-size="14.00">CourseFavorite</text>
<polyline fill="none" stroke="black" points="447.5,-495 612.5,-495 "/>
<text text-anchor="start" x="455.5" y="-478.4" font-family="Times Roman,serif" font-size="14.00">id :integer</text>
<text text-anchor="start" x="455.5" y="-460.4" font-family="Times Roman,serif" font-size="14.00">user_id :integer</text>
<text text-anchor="start" x="455.5" y="-442.4" font-family="Times Roman,serif" font-size="14.00">course_id :integer</text>
<text text-anchor="start" x="455.5" y="-424.4" font-family="Times Roman,serif" font-size="14.00">created_at :datetime</text>
<text text-anchor="start" x="455.5" y="-406.4" font-family="Times Roman,serif" font-size="14.00">updated_at :datetime</text>
</g>
<!-- Course&#45;&gt;CourseFavorite -->
<g id="edge8" class="edge"><title>Course&#45;&gt;CourseFavorite</title>
<path fill="none" stroke="#4c5137" d="M327.057,-577.201C327.706,-576.799 328.354,-576.399 329,-576 364.478,-554.107 404.034,-530.841 438.608,-510.872"/>
<ellipse fill="none" stroke="#4c5137" cx="323.446" cy="-579.447" rx="4.00002" ry="4.00002"/>
<polygon fill="#4c5137" stroke="#4c5137" points="438.622,-510.864 449.533,-509.767 442.953,-508.367 447.285,-505.869 447.285,-505.869 447.285,-505.869 442.953,-508.367 445.037,-501.971 438.622,-510.864 438.622,-510.864"/>
</g>
<!-- Folder -->
<g id="node4" class="node"><title>Folder</title>
<polyline fill="none" stroke="black" points="483.5,-190 624.5,-190 "/>
<path fill="none" stroke="black" d="M624.5,-190C630.5,-190 636.5,-196 636.5,-202"/>
<polyline fill="none" stroke="black" points="636.5,-202 636.5,-320 "/>
<path fill="none" stroke="black" d="M636.5,-320C636.5,-326 630.5,-332 624.5,-332"/>
<polyline fill="none" stroke="black" points="624.5,-332 483.5,-332 "/>
<path fill="none" stroke="black" d="M483.5,-332C477.5,-332 471.5,-326 471.5,-320"/>
<polyline fill="none" stroke="black" points="471.5,-320 471.5,-202 "/>
<path fill="none" stroke="black" d="M471.5,-202C471.5,-196 477.5,-190 483.5,-190"/>
<text text-anchor="middle" x="554" y="-315.4" font-family="Times Roman,serif" font-size="14.00">Folder</text>
<polyline fill="none" stroke="black" points="471.5,-306 636.5,-306 "/>
<text text-anchor="start" x="479.5" y="-289.4" font-family="Times Roman,serif" font-size="14.00">id :integer</text>
<text text-anchor="start" x="479.5" y="-271.4" font-family="Times Roman,serif" font-size="14.00">name :string</text>
<text text-anchor="start" x="479.5" y="-253.4" font-family="Times Roman,serif" font-size="14.00">folder_id :integer</text>
<text text-anchor="start" x="479.5" y="-235.4" font-family="Times Roman,serif" font-size="14.00">bucket_id :integer</text>
<text text-anchor="start" x="479.5" y="-217.4" font-family="Times Roman,serif" font-size="14.00">created_at :datetime</text>
<text text-anchor="start" x="479.5" y="-199.4" font-family="Times Roman,serif" font-size="14.00">updated_at :datetime</text>
</g>
<!-- Folder&#45;&gt;Folder -->
<g id="edge12" class="edge"><title>Folder&#45;&gt;Folder</title>
<path fill="none" stroke="#b4604d" d="M643.446,-287.099C649.991,-281.226 654,-272.526 654,-261 654,-250.415 650.618,-242.213 644.998,-236.396"/>
<ellipse fill="none" stroke="#b4604d" cx="640.061" cy="-289.429" rx="4.00002" ry="4.00002"/>
<polygon fill="#b4604d" stroke="#b4604d" points="644.804,-236.253 639.444,-226.686 640.785,-233.278 636.766,-230.303 636.766,-230.303 636.766,-230.303 640.785,-233.278 634.089,-233.919 644.804,-236.253 644.804,-236.253"/>
</g>
<!-- Document -->
<g id="node16" class="node"><title>Document</title>
<polyline fill="none" stroke="black" points="483.5,-10 624.5,-10 "/>
<path fill="none" stroke="black" d="M624.5,-10C630.5,-10 636.5,-16 636.5,-22"/>
<polyline fill="none" stroke="black" points="636.5,-22 636.5,-122 "/>
<path fill="none" stroke="black" d="M636.5,-122C636.5,-128 630.5,-134 624.5,-134"/>
<polyline fill="none" stroke="black" points="624.5,-134 483.5,-134 "/>
<path fill="none" stroke="black" d="M483.5,-134C477.5,-134 471.5,-128 471.5,-122"/>
<polyline fill="none" stroke="black" points="471.5,-122 471.5,-22 "/>
<path fill="none" stroke="black" d="M471.5,-22C471.5,-16 477.5,-10 483.5,-10"/>
<text text-anchor="middle" x="554" y="-117.4" font-family="Times Roman,serif" font-size="14.00">Document</text>
<polyline fill="none" stroke="black" points="471.5,-108 636.5,-108 "/>
<text text-anchor="start" x="479.5" y="-91.4" font-family="Times Roman,serif" font-size="14.00">id :integer</text>
<text text-anchor="start" x="479.5" y="-73.4" font-family="Times Roman,serif" font-size="14.00">folder_id :integer</text>
<text text-anchor="start" x="479.5" y="-55.4" font-family="Times Roman,serif" font-size="14.00">cloud_path :string</text>
<text text-anchor="start" x="479.5" y="-37.4" font-family="Times Roman,serif" font-size="14.00">created_at :datetime</text>
<text text-anchor="start" x="479.5" y="-19.4" font-family="Times Roman,serif" font-size="14.00">updated_at :datetime</text>
</g>
<!-- Folder&#45;&gt;Document -->
<g id="edge14" class="edge"><title>Folder&#45;&gt;Document</title>
<path fill="none" stroke="#90c2fd" d="M554,-181.589C554,-169.204 554,-156.465 554,-144.25"/>
<ellipse fill="none" stroke="#90c2fd" cx="554" cy="-185.817" rx="4" ry="4"/>
<polygon fill="#90c2fd" stroke="#90c2fd" points="554,-144.134 558.5,-134.134 554,-139.134 554,-134.134 554,-134.134 554,-134.134 554,-139.134 549.5,-134.134 554,-144.134 554,-144.134"/>
</g>
<!-- CollegeBranchPair -->
<g id="node5" class="node"><title>CollegeBranchPair</title>
<polyline fill="none" stroke="black" points="342.5,-775 483.5,-775 "/>
<path fill="none" stroke="black" d="M483.5,-775C489.5,-775 495.5,-781 495.5,-787"/>
<polyline fill="none" stroke="black" points="495.5,-787 495.5,-887 "/>
<path fill="none" stroke="black" d="M495.5,-887C495.5,-893 489.5,-899 483.5,-899"/>
<polyline fill="none" stroke="black" points="483.5,-899 342.5,-899 "/>
<path fill="none" stroke="black" d="M342.5,-899C336.5,-899 330.5,-893 330.5,-887"/>
<polyline fill="none" stroke="black" points="330.5,-887 330.5,-787 "/>
<path fill="none" stroke="black" d="M330.5,-787C330.5,-781 336.5,-775 342.5,-775"/>
<text text-anchor="middle" x="413" y="-882.4" font-family="Times Roman,serif" font-size="14.00">CollegeBranchPair</text>
<polyline fill="none" stroke="black" points="330.5,-873 495.5,-873 "/>
<text text-anchor="start" x="338.5" y="-856.4" font-family="Times Roman,serif" font-size="14.00">id :integer</text>
<text text-anchor="start" x="338.5" y="-838.4" font-family="Times Roman,serif" font-size="14.00">college_id :integer</text>
<text text-anchor="start" x="338.5" y="-820.4" font-family="Times Roman,serif" font-size="14.00">branch_id :integer</text>
<text text-anchor="start" x="338.5" y="-802.4" font-family="Times Roman,serif" font-size="14.00">created_at :datetime</text>
<text text-anchor="start" x="338.5" y="-784.4" font-family="Times Roman,serif" font-size="14.00">updated_at :datetime</text>
</g>
<!-- CollegeBranchPair&#45;&gt;Course -->
<g id="edge16" class="edge"><title>CollegeBranchPair&#45;&gt;Course</title>
<path fill="none" stroke="#958347" d="M334.851,-769.371C325.213,-761.031 315.259,-752.417 305.349,-743.841"/>
<ellipse fill="none" stroke="#958347" cx="338.102" cy="-772.185" rx="4.00002" ry="4.00002"/>
<polygon fill="#958347" stroke="#958347" points="305.348,-743.839 300.731,-733.893 301.567,-740.567 297.786,-737.295 297.786,-737.295 297.786,-737.295 301.567,-740.567 294.841,-740.698 305.348,-743.839 305.348,-743.839"/>
</g>
<!-- UserCollegeBranchEnrollment -->
<g id="node7" class="node"><title>UserCollegeBranchEnrollment</title>
<polyline fill="none" stroke="black" points="349.5,-577 600.5,-577 "/>
<path fill="none" stroke="black" d="M600.5,-577C606.5,-577 612.5,-583 612.5,-589"/>
<polyline fill="none" stroke="black" points="612.5,-589 612.5,-725 "/>
<path fill="none" stroke="black" d="M612.5,-725C612.5,-731 606.5,-737 600.5,-737"/>
<polyline fill="none" stroke="black" points="600.5,-737 349.5,-737 "/>
<path fill="none" stroke="black" d="M349.5,-737C343.5,-737 337.5,-731 337.5,-725"/>
<polyline fill="none" stroke="black" points="337.5,-725 337.5,-589 "/>
<path fill="none" stroke="black" d="M337.5,-589C337.5,-583 343.5,-577 349.5,-577"/>
<text text-anchor="middle" x="475" y="-720.4" font-family="Times Roman,serif" font-size="14.00">UserCollegeBranchEnrollment</text>
<polyline fill="none" stroke="black" points="337.5,-711 612.5,-711 "/>
<text text-anchor="start" x="345.5" y="-694.4" font-family="Times Roman,serif" font-size="14.00">id :integer</text>
<text text-anchor="start" x="345.5" y="-676.4" font-family="Times Roman,serif" font-size="14.00">user_id :integer</text>
<text text-anchor="start" x="345.5" y="-658.4" font-family="Times Roman,serif" font-size="14.00">college_branch_pair_id :integer</text>
<text text-anchor="start" x="345.5" y="-640.4" font-family="Times Roman,serif" font-size="14.00">college_enrollment_year :datetime</text>
<text text-anchor="start" x="345.5" y="-622.4" font-family="Times Roman,serif" font-size="14.00">exprected_year_completion :datetime</text>
<text text-anchor="start" x="345.5" y="-604.4" font-family="Times Roman,serif" font-size="14.00">created_at :datetime</text>
<text text-anchor="start" x="345.5" y="-586.4" font-family="Times Roman,serif" font-size="14.00">updated_at :datetime</text>
</g>
<!-- CollegeBranchPair&#45;&gt;UserCollegeBranchEnrollment -->
<g id="edge20" class="edge"><title>CollegeBranchPair&#45;&gt;UserCollegeBranchEnrollment</title>
<path fill="none" stroke="#aecf38" d="M437.09,-767.06C439.348,-760.507 441.656,-753.804 443.965,-747.1"/>
<ellipse fill="none" stroke="#aecf38" cx="435.726" cy="-771.02" rx="4.00001" ry="4.00001"/>
<polygon fill="#aecf38" stroke="#aecf38" points="444.086,-746.75 451.597,-738.761 445.714,-742.023 447.343,-737.295 447.343,-737.295 447.343,-737.295 445.714,-742.023 443.088,-735.83 444.086,-746.75 444.086,-746.75"/>
</g>
<!-- CollegeBranchPair&#45;&gt;Comment -->
<g id="edge18" class="edge"><title>CollegeBranchPair&#45;&gt;Comment</title>
<path fill="none" stroke="#65370c" d="M322.082,-822.323C234.123,-806.048 109.974,-776.874 81,-738 37.0487,-679.03 62.2225,-472.498 81.7908,-351.395"/>
<ellipse fill="none" stroke="#65370c" cx="326.276" cy="-823.09" rx="4.00001" ry="4.00001"/>
<polygon fill="#65370c" stroke="#65370c" points="81.813,-351.258 87.8672,-342.115 82.6196,-346.323 83.4262,-341.389 83.4262,-341.389 83.4262,-341.389 82.6196,-346.323 78.9851,-340.663 81.813,-351.258 81.813,-351.258"/>
</g>
<!-- User -->
<g id="node17" class="node"><title>User</title>
<polyline fill="none" stroke="black" points="525,-937 755,-937 "/>
<path fill="none" stroke="black" d="M755,-937C761,-937 767,-943 767,-949"/>
<polyline fill="none" stroke="black" points="767,-949 767,-1283 "/>
<path fill="none" stroke="black" d="M767,-1283C767,-1289 761,-1295 755,-1295"/>
<polyline fill="none" stroke="black" points="755,-1295 525,-1295 "/>
<path fill="none" stroke="black" d="M525,-1295C519,-1295 513,-1289 513,-1283"/>
<polyline fill="none" stroke="black" points="513,-1283 513,-949 "/>
<path fill="none" stroke="black" d="M513,-949C513,-943 519,-937 525,-937"/>
<text text-anchor="middle" x="640" y="-1278.4" font-family="Times Roman,serif" font-size="14.00">User</text>
<polyline fill="none" stroke="black" points="513,-1269 767,-1269 "/>
<text text-anchor="start" x="521" y="-1252.4" font-family="Times Roman,serif" font-size="14.00">id :integer</text>
<text text-anchor="start" x="521" y="-1234.4" font-family="Times Roman,serif" font-size="14.00">email :string</text>
<text text-anchor="start" x="521" y="-1216.4" font-family="Times Roman,serif" font-size="14.00">encrypted_password :string</text>
<text text-anchor="start" x="521" y="-1198.4" font-family="Times Roman,serif" font-size="14.00">reset_password_token :string</text>
<text text-anchor="start" x="521" y="-1180.4" font-family="Times Roman,serif" font-size="14.00">reset_password_sent_at :datetime</text>
<text text-anchor="start" x="521" y="-1162.4" font-family="Times Roman,serif" font-size="14.00">remember_created_at :datetime</text>
<text text-anchor="start" x="521" y="-1144.4" font-family="Times Roman,serif" font-size="14.00">sign_in_count :integer</text>
<text text-anchor="start" x="521" y="-1126.4" font-family="Times Roman,serif" font-size="14.00">current_sign_in_at :datetime</text>
<text text-anchor="start" x="521" y="-1108.4" font-family="Times Roman,serif" font-size="14.00">last_sign_in_at :datetime</text>
<text text-anchor="start" x="521" y="-1090.4" font-family="Times Roman,serif" font-size="14.00">current_sign_in_ip :inet</text>
<text text-anchor="start" x="521" y="-1072.4" font-family="Times Roman,serif" font-size="14.00">last_sign_in_ip :inet</text>
<text text-anchor="start" x="521" y="-1054.4" font-family="Times Roman,serif" font-size="14.00">created_at :datetime</text>
<text text-anchor="start" x="521" y="-1036.4" font-family="Times Roman,serif" font-size="14.00">updated_at :datetime</text>
<text text-anchor="start" x="521" y="-1018.4" font-family="Times Roman,serif" font-size="14.00">provider :string</text>
<text text-anchor="start" x="521" y="-1000.4" font-family="Times Roman,serif" font-size="14.00">uid :string</text>
<text text-anchor="start" x="521" y="-982.4" font-family="Times Roman,serif" font-size="14.00">name :string</text>
<text text-anchor="start" x="521" y="-964.4" font-family="Times Roman,serif" font-size="14.00">first_name :string</text>
<text text-anchor="start" x="521" y="-946.4" font-family="Times Roman,serif" font-size="14.00">last_name :string</text>
</g>
<!-- CollegeBranchPair&#45;&gt;User -->
<g id="edge22" class="edge"><title>CollegeBranchPair&#45;&gt;User</title>
<path fill="none" stroke="#829225" d="M487.594,-906.783C494.108,-913.999 500.622,-921.411 507.068,-928.975"/>
<polygon fill="#829225" stroke="#829225" points="487.265,-906.422 483.855,-896 483.897,-902.727 480.529,-899.032 480.529,-899.032 480.529,-899.032 483.897,-902.727 477.203,-902.063 487.265,-906.422 487.265,-906.422"/>
<polygon fill="#829225" stroke="#829225" points="507.307,-929.258 510.313,-939.804 510.53,-933.081 513.753,-936.904 513.753,-936.904 513.753,-936.904 510.53,-933.081 517.193,-934.003 507.307,-929.258 507.307,-929.258"/>
</g>
<!-- Bucket&#45;&gt;Folder -->
<g id="edge24" class="edge"><title>Bucket&#45;&gt;Folder</title>
<path fill="none" stroke="#0469b2" d="M658.809,-372.571C648.499,-361.596 637.993,-350.412 627.807,-339.569"/>
<ellipse fill="none" stroke="#0469b2" cx="661.876" cy="-375.836" rx="4.00002" ry="4.00002"/>
<polygon fill="#0469b2" stroke="#0469b2" points="627.66,-339.413 624.093,-329.043 624.237,-335.768 620.814,-332.124 620.814,-332.124 620.814,-332.124 624.237,-335.768 617.534,-335.205 627.66,-339.413 627.66,-339.413"/>
</g>
<!-- Download -->
<g id="node10" class="node"><title>Download</title>
<polyline fill="none" stroke="black" points="865.5,-199 1006.5,-199 "/>
<path fill="none" stroke="black" d="M1006.5,-199C1012.5,-199 1018.5,-205 1018.5,-211"/>
<polyline fill="none" stroke="black" points="1018.5,-211 1018.5,-311 "/>
<path fill="none" stroke="black" d="M1018.5,-311C1018.5,-317 1012.5,-323 1006.5,-323"/>
<polyline fill="none" stroke="black" points="1006.5,-323 865.5,-323 "/>
<path fill="none" stroke="black" d="M865.5,-323C859.5,-323 853.5,-317 853.5,-311"/>
<polyline fill="none" stroke="black" points="853.5,-311 853.5,-211 "/>
<path fill="none" stroke="black" d="M853.5,-211C853.5,-205 859.5,-199 865.5,-199"/>
<text text-anchor="middle" x="936" y="-306.4" font-family="Times Roman,serif" font-size="14.00">Download</text>
<polyline fill="none" stroke="black" points="853.5,-297 1018.5,-297 "/>
<text text-anchor="start" x="861.5" y="-280.4" font-family="Times Roman,serif" font-size="14.00">id :integer</text>
<text text-anchor="start" x="861.5" y="-262.4" font-family="Times Roman,serif" font-size="14.00">user_id :integer</text>
<text text-anchor="start" x="861.5" y="-244.4" font-family="Times Roman,serif" font-size="14.00">bucket_id :integer</text>
<text text-anchor="start" x="861.5" y="-226.4" font-family="Times Roman,serif" font-size="14.00">created_at :datetime</text>
<text text-anchor="start" x="861.5" y="-208.4" font-family="Times Roman,serif" font-size="14.00">updated_at :datetime</text>
</g>
<!-- Bucket&#45;&gt;Download -->
<g id="edge28" class="edge"><title>Bucket&#45;&gt;Download</title>
<path fill="none" stroke="#a73808" d="M825.491,-372.637C839.41,-358.576 853.671,-344.169 867.127,-330.576"/>
<ellipse fill="none" stroke="#a73808" cx="822.252" cy="-375.908" rx="4.00002" ry="4.00002"/>
<polygon fill="#a73808" stroke="#a73808" points="867.477,-330.222 877.71,-326.281 870.995,-326.669 874.512,-323.115 874.512,-323.115 874.512,-323.115 870.995,-326.669 871.314,-319.949 867.477,-330.222 867.477,-330.222"/>
</g>
<!-- Bucket&#45;&gt;Comment -->
<g id="edge30" class="edge"><title>Bucket&#45;&gt;Comment</title>
<path fill="none" stroke="#a57035" d="M650.457,-392.981C640.789,-387.407 630.872,-382.277 621,-378 616.18,-375.912 357.705,-318.504 205.982,-284.894"/>
<ellipse fill="none" stroke="#a57035" cx="654.005" cy="-395.077" rx="4.00002" ry="4.00002"/>
<polygon fill="#a57035" stroke="#a57035" points="205.91,-284.878 197.12,-278.322 201.028,-283.797 196.146,-282.716 196.146,-282.716 196.146,-282.716 201.028,-283.797 195.173,-287.109 205.91,-284.878 205.91,-284.878"/>
</g>
<!-- Upload -->
<g id="node15" class="node"><title>Upload</title>
<polyline fill="none" stroke="black" points="683.5,-199 824.5,-199 "/>
<path fill="none" stroke="black" d="M824.5,-199C830.5,-199 836.5,-205 836.5,-211"/>
<polyline fill="none" stroke="black" points="836.5,-211 836.5,-311 "/>
<path fill="none" stroke="black" d="M836.5,-311C836.5,-317 830.5,-323 824.5,-323"/>
<polyline fill="none" stroke="black" points="824.5,-323 683.5,-323 "/>
<path fill="none" stroke="black" d="M683.5,-323C677.5,-323 671.5,-317 671.5,-311"/>
<polyline fill="none" stroke="black" points="671.5,-311 671.5,-211 "/>
<path fill="none" stroke="black" d="M671.5,-211C671.5,-205 677.5,-199 683.5,-199"/>
<text text-anchor="middle" x="754" y="-306.4" font-family="Times Roman,serif" font-size="14.00">Upload</text>
<polyline fill="none" stroke="black" points="671.5,-297 836.5,-297 "/>
<text text-anchor="start" x="679.5" y="-280.4" font-family="Times Roman,serif" font-size="14.00">id :integer</text>
<text text-anchor="start" x="679.5" y="-262.4" font-family="Times Roman,serif" font-size="14.00">user_id :integer</text>
<text text-anchor="start" x="679.5" y="-244.4" font-family="Times Roman,serif" font-size="14.00">bucket_id :integer</text>
<text text-anchor="start" x="679.5" y="-226.4" font-family="Times Roman,serif" font-size="14.00">created_at :datetime</text>
<text text-anchor="start" x="679.5" y="-208.4" font-family="Times Roman,serif" font-size="14.00">updated_at :datetime</text>
</g>
<!-- Bucket&#45;&gt;Upload -->
<g id="edge26" class="edge"><title>Bucket&#45;&gt;Upload</title>
<path fill="none" stroke="#923e08" d="M746.262,-370.442C747.144,-357.964 748.042,-345.262 748.899,-333.142"/>
<ellipse fill="none" stroke="#923e08" cx="745.956" cy="-374.761" rx="4" ry="4"/>
<polygon fill="#923e08" stroke="#923e08" points="748.903,-333.09 754.097,-323.433 749.255,-328.103 749.608,-323.115 749.608,-323.115 749.608,-323.115 749.255,-328.103 745.119,-322.798 748.903,-333.09 748.903,-333.09"/>
</g>
<!-- Branch -->
<g id="node8" class="node"><title>Branch</title>
<polyline fill="none" stroke="black" points="287.5,-1414 428.5,-1414 "/>
<path fill="none" stroke="black" d="M428.5,-1414C434.5,-1414 440.5,-1420 440.5,-1426"/>
<polyline fill="none" stroke="black" points="440.5,-1426 440.5,-1508 "/>
<path fill="none" stroke="black" d="M440.5,-1508C440.5,-1514 434.5,-1520 428.5,-1520"/>
<polyline fill="none" stroke="black" points="428.5,-1520 287.5,-1520 "/>
<path fill="none" stroke="black" d="M287.5,-1520C281.5,-1520 275.5,-1514 275.5,-1508"/>
<polyline fill="none" stroke="black" points="275.5,-1508 275.5,-1426 "/>
<path fill="none" stroke="black" d="M275.5,-1426C275.5,-1420 281.5,-1414 287.5,-1414"/>
<text text-anchor="middle" x="358" y="-1503.4" font-family="Times Roman,serif" font-size="14.00">Branch</text>
<polyline fill="none" stroke="black" points="275.5,-1494 440.5,-1494 "/>
<text text-anchor="start" x="283.5" y="-1477.4" font-family="Times Roman,serif" font-size="14.00">id :integer</text>
<text text-anchor="start" x="283.5" y="-1459.4" font-family="Times Roman,serif" font-size="14.00">name :string</text>
<text text-anchor="start" x="283.5" y="-1441.4" font-family="Times Roman,serif" font-size="14.00">created_at :datetime</text>
<text text-anchor="start" x="283.5" y="-1423.4" font-family="Times Roman,serif" font-size="14.00">updated_at :datetime</text>
</g>
<!-- Branch&#45;&gt;CollegeBranchPair -->
<g id="edge32" class="edge"><title>Branch&#45;&gt;CollegeBranchPair</title>
<path fill="none" stroke="#40fc83" d="M337.591,-1406.17C307.072,-1304.76 259.454,-1096.47 322,-936 325.927,-925.925 331.412,-916.254 337.763,-907.172"/>
<ellipse fill="none" stroke="#40fc83" cx="338.773" cy="-1410.05" rx="4.00001" ry="4.00001"/>
<polygon fill="#40fc83" stroke="#40fc83" points="337.864,-907.035 347.434,-901.681 340.842,-903.019 343.819,-899.002 343.819,-899.002 343.819,-899.002 340.842,-903.019 340.204,-896.322 337.864,-907.035 337.864,-907.035"/>
</g>
<!-- College -->
<g id="node18" class="node"><title>College</title>
<polyline fill="none" stroke="black" points="342.5,-1063 483.5,-1063 "/>
<path fill="none" stroke="black" d="M483.5,-1063C489.5,-1063 495.5,-1069 495.5,-1075"/>
<polyline fill="none" stroke="black" points="495.5,-1075 495.5,-1157 "/>
<path fill="none" stroke="black" d="M495.5,-1157C495.5,-1163 489.5,-1169 483.5,-1169"/>
<polyline fill="none" stroke="black" points="483.5,-1169 342.5,-1169 "/>
<path fill="none" stroke="black" d="M342.5,-1169C336.5,-1169 330.5,-1163 330.5,-1157"/>
<polyline fill="none" stroke="black" points="330.5,-1157 330.5,-1075 "/>
<path fill="none" stroke="black" d="M330.5,-1075C330.5,-1069 336.5,-1063 342.5,-1063"/>
<text text-anchor="middle" x="413" y="-1152.4" font-family="Times Roman,serif" font-size="14.00">College</text>
<polyline fill="none" stroke="black" points="330.5,-1143 495.5,-1143 "/>
<text text-anchor="start" x="338.5" y="-1126.4" font-family="Times Roman,serif" font-size="14.00">id :integer</text>
<text text-anchor="start" x="338.5" y="-1108.4" font-family="Times Roman,serif" font-size="14.00">name :string</text>
<text text-anchor="start" x="338.5" y="-1090.4" font-family="Times Roman,serif" font-size="14.00">created_at :datetime</text>
<text text-anchor="start" x="338.5" y="-1072.4" font-family="Times Roman,serif" font-size="14.00">updated_at :datetime</text>
</g>
<!-- Branch&#45;&gt;College -->
<g id="edge34" class="edge"><title>Branch&#45;&gt;College</title>
<path fill="none" stroke="#e52376" d="M367.922,-1403.68C377.887,-1340.09 393.154,-1242.66 403.108,-1179.13"/>
<polygon fill="#e52376" stroke="#e52376" points="367.901,-1403.81 361.908,-1412.99 367.127,-1408.75 366.353,-1413.69 366.353,-1413.69 366.353,-1413.69 367.127,-1408.75 370.799,-1414.39 367.901,-1403.81 367.901,-1403.81"/>
<polygon fill="#e52376" stroke="#e52376" points="403.11,-1179.11 409.104,-1169.93 403.884,-1174.17 404.658,-1169.23 404.658,-1169.23 404.658,-1169.23 403.884,-1174.17 400.213,-1168.54 403.11,-1179.11 403.11,-1179.11"/>
</g>
<!-- AdminUser -->
<g id="node9" class="node"><title>AdminUser</title>
<polyline fill="none" stroke="black" points="470,-1333 700,-1333 "/>
<path fill="none" stroke="black" d="M700,-1333C706,-1333 712,-1339 712,-1345"/>
<polyline fill="none" stroke="black" points="712,-1345 712,-1589 "/>
<path fill="none" stroke="black" d="M712,-1589C712,-1595 706,-1601 700,-1601"/>
<polyline fill="none" stroke="black" points="700,-1601 470,-1601 "/>
<path fill="none" stroke="black" d="M470,-1601C464,-1601 458,-1595 458,-1589"/>
<polyline fill="none" stroke="black" points="458,-1589 458,-1345 "/>
<path fill="none" stroke="black" d="M458,-1345C458,-1339 464,-1333 470,-1333"/>
<text text-anchor="middle" x="585" y="-1584.4" font-family="Times Roman,serif" font-size="14.00">AdminUser</text>
<polyline fill="none" stroke="black" points="458,-1575 712,-1575 "/>
<text text-anchor="start" x="466" y="-1558.4" font-family="Times Roman,serif" font-size="14.00">id :integer</text>
<text text-anchor="start" x="466" y="-1540.4" font-family="Times Roman,serif" font-size="14.00">email :string</text>
<text text-anchor="start" x="466" y="-1522.4" font-family="Times Roman,serif" font-size="14.00">encrypted_password :string</text>
<text text-anchor="start" x="466" y="-1504.4" font-family="Times Roman,serif" font-size="14.00">reset_password_token :string</text>
<text text-anchor="start" x="466" y="-1486.4" font-family="Times Roman,serif" font-size="14.00">reset_password_sent_at :datetime</text>
<text text-anchor="start" x="466" y="-1468.4" font-family="Times Roman,serif" font-size="14.00">remember_created_at :datetime</text>
<text text-anchor="start" x="466" y="-1450.4" font-family="Times Roman,serif" font-size="14.00">sign_in_count :integer</text>
<text text-anchor="start" x="466" y="-1432.4" font-family="Times Roman,serif" font-size="14.00">current_sign_in_at :datetime</text>
<text text-anchor="start" x="466" y="-1414.4" font-family="Times Roman,serif" font-size="14.00">last_sign_in_at :datetime</text>
<text text-anchor="start" x="466" y="-1396.4" font-family="Times Roman,serif" font-size="14.00">current_sign_in_ip :inet</text>
<text text-anchor="start" x="466" y="-1378.4" font-family="Times Roman,serif" font-size="14.00">last_sign_in_ip :inet</text>
<text text-anchor="start" x="466" y="-1360.4" font-family="Times Roman,serif" font-size="14.00">created_at :datetime</text>
<text text-anchor="start" x="466" y="-1342.4" font-family="Times Roman,serif" font-size="14.00">updated_at :datetime</text>
</g>
<!-- CommentResponse -->
<g id="node12" class="node"><title>CommentResponse</title>
<polyline fill="none" stroke="black" points="27.5,-1 168.5,-1 "/>
<path fill="none" stroke="black" d="M168.5,-1C174.5,-1 180.5,-7 180.5,-13"/>
<polyline fill="none" stroke="black" points="180.5,-13 180.5,-131 "/>
<path fill="none" stroke="black" d="M180.5,-131C180.5,-137 174.5,-143 168.5,-143"/>
<polyline fill="none" stroke="black" points="168.5,-143 27.5,-143 "/>
<path fill="none" stroke="black" d="M27.5,-143C21.5,-143 15.5,-137 15.5,-131"/>
<polyline fill="none" stroke="black" points="15.5,-131 15.5,-13 "/>
<path fill="none" stroke="black" d="M15.5,-13C15.5,-7 21.5,-1 27.5,-1"/>
<text text-anchor="middle" x="98" y="-126.4" font-family="Times Roman,serif" font-size="14.00">CommentResponse</text>
<polyline fill="none" stroke="black" points="15.5,-117 180.5,-117 "/>
<text text-anchor="start" x="23.5" y="-100.4" font-family="Times Roman,serif" font-size="14.00">id :integer</text>
<text text-anchor="start" x="23.5" y="-82.4" font-family="Times Roman,serif" font-size="14.00">user_id :integer</text>
<text text-anchor="start" x="23.5" y="-64.4" font-family="Times Roman,serif" font-size="14.00">comment_id :integer</text>
<text text-anchor="start" x="23.5" y="-46.4" font-family="Times Roman,serif" font-size="14.00">message :string</text>
<text text-anchor="start" x="23.5" y="-28.4" font-family="Times Roman,serif" font-size="14.00">created_at :datetime</text>
<text text-anchor="start" x="23.5" y="-10.4" font-family="Times Roman,serif" font-size="14.00">updated_at :datetime</text>
</g>
<!-- Comment&#45;&gt;CommentResponse -->
<g id="edge36" class="edge"><title>Comment&#45;&gt;CommentResponse</title>
<path fill="none" stroke="#c16813" d="M98,-172.62C98,-166.323 98,-159.99 98,-153.732"/>
<ellipse fill="none" stroke="#c16813" cx="98" cy="-176.847" rx="4" ry="4"/>
<polygon fill="#c16813" stroke="#c16813" points="98.0001,-153.293 102.5,-143.293 98,-148.293 98,-143.293 98,-143.293 98,-143.293 98,-148.293 93.5,-143.293 98.0001,-153.293 98.0001,-153.293"/>
</g>
<!-- User&#45;&gt;CollegeBranchPair -->
<g id="edge50" class="edge"><title>User&#45;&gt;CollegeBranchPair</title>
<path fill="none" stroke="#fab26e" d="M507.511,-951.2C503.322,-946.048 499.145,-940.97 495,-936 486.5,-925.809 477.288,-915.263 468.198,-905.021"/>
<ellipse fill="none" stroke="#fab26e" cx="510.307" cy="-954.653" rx="4.00002" ry="4.00002"/>
<ellipse fill="#fab26e" stroke="#fab26e" cx="465.526" cy="-902.019" rx="4.00002" ry="4.00002"/>
</g>
<!-- User&#45;&gt;UserCollegeBranchEnrollment -->
<g id="edge48" class="edge"><title>User&#45;&gt;UserCollegeBranchEnrollment</title>
<path fill="none" stroke="#8b0811" d="M572.843,-929.182C549.916,-865.401 525.349,-797.062 506.567,-744.815"/>
<ellipse fill="none" stroke="#8b0811" cx="574.263" cy="-933.131" rx="4.00001" ry="4.00001"/>
<ellipse fill="#8b0811" stroke="#8b0811" cx="505.192" cy="-740.99" rx="4.00001" ry="4.00001"/>
</g>
<!-- User&#45;&gt;Download -->
<g id="edge46" class="edge"><title>User&#45;&gt;Download</title>
<path fill="none" stroke="#687c9a" d="M772.732,-998.626C801.122,-968.642 828.882,-934.933 850,-900 959.134,-719.475 954.196,-458.457 943.992,-333.282"/>
<ellipse fill="none" stroke="#687c9a" cx="769.812" cy="-1001.68" rx="4.00002" ry="4.00002"/>
<polygon fill="#687c9a" stroke="#687c9a" points="943.969,-333.016 947.605,-322.67 943.545,-328.034 943.121,-323.052 943.121,-323.052 943.121,-323.052 943.545,-328.034 938.637,-323.434 943.969,-333.016 943.969,-333.016"/>
</g>
<!-- User&#45;&gt;CourseEnrollment -->
<g id="edge40" class="edge"><title>User&#45;&gt;CourseEnrollment</title>
<path fill="none" stroke="#de67b7" d="M644.658,-928.456C646.406,-783.372 643.793,-602.769 621,-576 567.544,-513.219 516.432,-568.344 439,-540 420.92,-533.382 402.393,-524.745 384.869,-515.583"/>
<ellipse fill="none" stroke="#de67b7" cx="644.605" cy="-932.645" rx="4" ry="4"/>
<polygon fill="#de67b7" stroke="#de67b7" points="384.628,-515.455 377.92,-506.78 380.216,-513.103 375.803,-510.751 375.803,-510.751 375.803,-510.751 380.216,-513.103 373.687,-514.722 384.628,-515.455 384.628,-515.455"/>
</g>
<!-- User&#45;&gt;Comment -->
<g id="edge38" class="edge"><title>User&#45;&gt;Comment</title>
<path fill="none" stroke="#9a95b6" d="M505.955,-937.241C505.305,-936.823 504.654,-936.409 504,-936 434.117,-892.234 398.916,-929.715 322,-900 191.816,-849.705 121.662,-859.503 53,-738 -15.1887,-617.335 24.4517,-451.669 60.4415,-350.701"/>
<ellipse fill="none" stroke="#9a95b6" cx="509.519" cy="-939.642" rx="4.00002" ry="4.00002"/>
<polygon fill="#9a95b6" stroke="#9a95b6" points="60.501,-350.537 68.1399,-342.669 62.2051,-345.836 63.9093,-341.136 63.9093,-341.136 63.9093,-341.136 62.2051,-345.836 59.6787,-339.602 60.501,-350.537 60.501,-350.537"/>
</g>
<!-- User&#45;&gt;CourseFavorite -->
<g id="edge44" class="edge"><title>User&#45;&gt;CourseFavorite</title>
<path fill="none" stroke="#da954c" d="M682.641,-928.783C698.04,-821.32 701.56,-686.263 654,-576 646.114,-557.717 633.809,-540.963 619.953,-526.197"/>
<ellipse fill="none" stroke="#da954c" cx="682.044" cy="-932.841" rx="4.00001" ry="4.00001"/>
<polygon fill="#da954c" stroke="#da954c" points="619.573,-525.809 615.799,-515.513 616.077,-522.234 612.581,-518.66 612.581,-518.66 612.581,-518.66 616.077,-522.234 609.364,-521.806 619.573,-525.809 619.573,-525.809"/>
</g>
<!-- User&#45;&gt;Upload -->
<g id="edge42" class="edge"><title>User&#45;&gt;Upload</title>
<path fill="none" stroke="#7898f8" d="M771.756,-952.4C814.726,-889.22 857.014,-813.913 879,-738 923.904,-582.956 895.334,-526.041 831,-378 824.195,-362.34 815.329,-346.468 806.046,-331.679"/>
<ellipse fill="none" stroke="#7898f8" cx="769.319" cy="-955.958" rx="4.00002" ry="4.00002"/>
<polygon fill="#7898f8" stroke="#7898f8" points="805.946,-331.522 804.332,-320.676 803.245,-327.314 800.545,-323.106 800.545,-323.106 800.545,-323.106 803.245,-327.314 796.757,-325.537 805.946,-331.522 805.946,-331.522"/>
</g>
<!-- College&#45;&gt;CollegeBranchPair -->
<g id="edge52" class="edge"><title>College&#45;&gt;CollegeBranchPair</title>
<path fill="none" stroke="#a6cdbb" d="M413,-1054.74C413,-1011.84 413,-954.345 413,-909.209"/>
<ellipse fill="none" stroke="#a6cdbb" cx="413" cy="-1058.87" rx="4" ry="4"/>
<polygon fill="#a6cdbb" stroke="#a6cdbb" points="413,-909.191 417.5,-899.191 413,-904.191 413,-899.191 413,-899.191 413,-899.191 413,-904.191 408.5,-899.191 413,-909.191 413,-909.191"/>
</g>
</g>
</svg>
