<?xml version="1.0" encoding="UTF-8" standalone="no"?>
<!DOCTYPE svg PUBLIC "-//W3C//DTD SVG 1.1//EN"
 "http://www.w3.org/Graphics/SVG/1.1/DTD/svg11.dtd">
<!-- Generated by graphviz version 2.26.3 (20100126.1600)
 -->
<!-- Title: models_diagram Pages: 1 -->
<svg width="1346pt" height="762pt"
 viewBox="0.00 0.00 1346.00 762.00" xmlns="http://www.w3.org/2000/svg" xmlns:xlink="http://www.w3.org/1999/xlink">
<g id="graph1" class="graph" transform="scale(1 1) rotate(0) translate(4 758)">
<title>models_diagram</title>
<polygon fill="white" stroke="white" points="-4,5 -4,-758 1343,-758 1343,5 -4,5"/>
<!-- _diagram_info -->
<g id="node1" class="node"><title>_diagram_info</title>
<text text-anchor="start" x="48" y="-737.8" font-family="Times Roman,serif" font-size="13.00">Models diagram</text>
<text text-anchor="start" x="48" y="-720.8" font-family="Times Roman,serif" font-size="13.00">Date: Apr 04 2015 &#45; 14:53</text>
<text text-anchor="start" x="48" y="-703.8" font-family="Times Roman,serif" font-size="13.00">Migration version: 20150402033837</text>
<text text-anchor="start" x="48" y="-686.8" font-family="Times Roman,serif" font-size="13.00">Generated by RailRoady 1.3.0</text>
<text text-anchor="start" x="48" y="-669.8" font-family="Times Roman,serif" font-size="13.00">http://railroady.prestonlee.com</text>
</g>
<!-- Category -->
<g id="node2" class="node"><title>Category</title>
<ellipse fill="none" stroke="black" cx="227" cy="-547" rx="56.0679" ry="18.3848"/>
<text text-anchor="middle" x="227" y="-543.4" font-family="Times Roman,serif" font-size="14.00">Category</text>
</g>
<!-- Bucket -->
<g id="node6" class="node"><title>Bucket</title>
<ellipse fill="none" stroke="black" cx="229" cy="-187" rx="44.7575" ry="18.3848"/>
<text text-anchor="middle" x="229" y="-183.4" font-family="Times Roman,serif" font-size="14.00">Bucket</text>
</g>
<!-- Category&#45;&gt;Bucket -->
<g id="edge2" class="edge"><title>Category&#45;&gt;Bucket</title>
<path fill="none" stroke="#94896f" d="M227.437,-520.157C227.706,-501.356 228,-475.645 228,-453 228,-453 228,-453 228,-263 228,-247.437 228.212,-230.084 228.441,-215.893"/>
<ellipse fill="none" stroke="#94896f" cx="227.376" cy="-524.275" rx="4" ry="4"/>
<polygon fill="#94896f" stroke="#94896f" points="228.444,-215.737 233.116,-205.816 228.53,-210.738 228.616,-205.739 228.616,-205.739 228.616,-205.739 228.53,-210.738 224.117,-205.661 228.444,-215.737 228.444,-215.737"/>
</g>
<!-- Course -->
<g id="node3" class="node"><title>Course</title>
<ellipse fill="none" stroke="black" cx="705" cy="-603" rx="45.9619" ry="18.3848"/>
<text text-anchor="middle" x="705" y="-599.4" font-family="Times Roman,serif" font-size="14.00">Course</text>
</g>
<!-- Course&#45;&gt;Bucket -->
<g id="edge6" class="edge"><title>Course&#45;&gt;Bucket</title>
<path fill="none" stroke="#340683" d="M651.777,-598.558C598.431,-593.239 520.768,-582.87 496,-566 463.681,-543.988 450,-530.104 450,-491 450,-491 450,-491 450,-263 450,-244.947 343.181,-215.262 278.071,-198.844"/>
<ellipse fill="none" stroke="#340683" cx="655.808" cy="-598.95" rx="4" ry="4"/>
<polygon fill="#340683" stroke="#340683" points="277.703,-198.753 269.093,-191.962 272.852,-197.54 268.002,-196.327 268.002,-196.327 268.002,-196.327 272.852,-197.54 266.91,-200.693 277.703,-198.753 277.703,-198.753"/>
</g>
<!-- Branch -->
<g id="node7" class="node"><title>Branch</title>
<ellipse fill="none" stroke="black" cx="874" cy="-491" rx="45.9619" ry="18.3848"/>
<text text-anchor="middle" x="874" y="-487.4" font-family="Times Roman,serif" font-size="14.00">Branch</text>
</g>
<!-- Course&#45;&gt;Branch -->
<g id="edge16" class="edge"><title>Course&#45;&gt;Branch</title>
<path fill="none" stroke="#268a40" d="M756.243,-592.101C775.502,-586.397 796.863,-578.019 814,-566 832.084,-553.316 847.519,-533.677 858.203,-517.677"/>
<polygon fill="#268a40" stroke="#268a40" points="756.029,-592.161 745.188,-590.511 751.213,-593.503 746.396,-594.846 746.396,-594.846 746.396,-594.846 751.213,-593.503 747.605,-599.18 756.029,-592.161 756.029,-592.161"/>
<polygon fill="#268a40" stroke="#268a40" points="858.227,-517.64 867.422,-511.664 860.932,-513.435 863.637,-509.229 863.637,-509.229 863.637,-509.229 860.932,-513.435 859.852,-506.795 858.227,-517.64 858.227,-517.64"/>
</g>
<!-- CourseEnrollment -->
<g id="node10" class="node"><title>CourseEnrollment</title>
<ellipse fill="none" stroke="black" cx="429" cy="-187" rx="98.9949" ry="18.3848"/>
<text text-anchor="middle" x="429" y="-183.4" font-family="Times Roman,serif" font-size="14.00">CourseEnrollment</text>
</g>
<!-- Course&#45;&gt;CourseEnrollment -->
<g id="edge8" class="edge"><title>Course&#45;&gt;CourseEnrollment</title>
<path fill="none" stroke="#d1f325" d="M651.734,-598.495C587.485,-589.806 488,-564.487 488,-491 488,-491 488,-491 488,-301 488,-265.154 482.118,-254.93 464,-224 461.726,-220.118 458.974,-216.318 456.023,-212.721"/>
<ellipse fill="none" stroke="#d1f325" cx="655.806" cy="-599.014" rx="4.00001" ry="4.00001"/>
<polygon fill="#d1f325" stroke="#d1f325" points="455.997,-212.691 452.719,-202.226 452.676,-208.953 449.355,-205.215 449.355,-205.215 449.355,-205.215 452.676,-208.953 445.991,-208.204 455.997,-212.691 455.997,-212.691"/>
</g>
<!-- Comment -->
<g id="node12" class="node"><title>Comment</title>
<ellipse fill="none" stroke="black" cx="828" cy="-95" rx="58.1882" ry="18.3848"/>
<text text-anchor="middle" x="828" y="-91.4" font-family="Times Roman,serif" font-size="14.00">Comment</text>
</g>
<!-- Course&#45;&gt;Comment -->
<g id="edge12" class="edge"><title>Course&#45;&gt;Comment</title>
<path fill="none" stroke="#077d75" d="M712.019,-576.744C717.432,-554.18 724,-520.685 724,-491 724,-491 724,-491 724,-339 724,-289.062 745.854,-276.229 784,-244 800.74,-229.857 862.851,-224.239 875,-206 892.954,-179.047 872.026,-144.118 852.664,-120.705"/>
<ellipse fill="none" stroke="#077d75" cx="711.052" cy="-580.652" rx="4.00001" ry="4.00001"/>
<polygon fill="#077d75" stroke="#077d75" points="852.488,-120.501 849.351,-109.993 849.217,-116.719 845.947,-112.936 845.947,-112.936 845.947,-112.936 849.217,-116.719 842.543,-115.879 852.488,-120.501 852.488,-120.501"/>
</g>
<!-- CourseFavorite -->
<g id="node13" class="node"><title>CourseFavorite</title>
<ellipse fill="none" stroke="black" cx="781" cy="-187" rx="84.8528" ry="18.3848"/>
<text text-anchor="middle" x="781" y="-183.4" font-family="Times Roman,serif" font-size="14.00">CourseFavorite</text>
</g>
<!-- Course&#45;&gt;CourseFavorite -->
<g id="edge10" class="edge"><title>Course&#45;&gt;CourseFavorite</title>
<path fill="none" stroke="#3d8b2e" d="M697.981,-576.744C692.568,-554.18 686,-520.685 686,-491 686,-491 686,-491 686,-377 686,-315.876 689.88,-296.608 721,-244 728.17,-231.879 738.645,-220.684 748.843,-211.483"/>
<ellipse fill="none" stroke="#3d8b2e" cx="698.948" cy="-580.652" rx="4.00001" ry="4.00001"/>
<polygon fill="#3d8b2e" stroke="#3d8b2e" points="748.957,-211.385 759.468,-208.26 752.743,-208.119 756.529,-204.853 756.529,-204.853 756.529,-204.853 752.743,-208.119 753.589,-201.445 748.957,-211.385 748.957,-211.385"/>
</g>
<!-- College -->
<g id="node16" class="node"><title>College</title>
<ellipse fill="none" stroke="black" cx="906" cy="-415" rx="46.8775" ry="18.3848"/>
<text text-anchor="middle" x="906" y="-411.4" font-family="Times Roman,serif" font-size="14.00">College</text>
</g>
<!-- Course&#45;&gt;College -->
<g id="edge14" class="edge"><title>Course&#45;&gt;College</title>
<path fill="none" stroke="#4fec31" d="M748.529,-586.091C758.44,-580.764 768.304,-574.102 776,-566 807.64,-532.691 789.057,-506.843 819,-472 832.207,-456.632 850.553,-443.784 866.994,-434.2"/>
<polygon fill="#4fec31" stroke="#4fec31" points="748.421,-586.145 737.464,-586.586 743.948,-588.379 739.474,-590.612 739.474,-590.612 739.474,-590.612 743.948,-588.379 741.484,-594.638 748.421,-586.145 748.421,-586.145"/>
<polygon fill="#4fec31" stroke="#4fec31" points="867.164,-434.105 878.088,-433.142 871.526,-431.661 875.888,-429.217 875.888,-429.217 875.888,-429.217 871.526,-431.661 873.688,-425.291 867.164,-434.105 867.164,-434.105"/>
</g>
<!-- Folder -->
<g id="node4" class="node"><title>Folder</title>
<ellipse fill="none" stroke="black" cx="69" cy="-95" rx="41.2167" ry="18.3848"/>
<text text-anchor="middle" x="69" y="-91.4" font-family="Times Roman,serif" font-size="14.00">Folder</text>
</g>
<!-- Folder&#45;&gt;Folder -->
<g id="edge20" class="edge"><title>Folder&#45;&gt;Folder</title>
<path fill="none" stroke="#81b92b" d="M115.256,-101.592C122.809,-100.649 128,-98.4512 128,-95 128,-91.8364 123.638,-89.7263 117.093,-88.6698"/>
<ellipse fill="none" stroke="#81b92b" cx="111.012" cy="-101.863" rx="4" ry="4"/>
<polygon fill="#81b92b" stroke="#81b92b" points="116.989,-88.6617 107.371,-83.3957 112.005,-88.2718 107.02,-87.882 107.02,-87.882 107.02,-87.882 112.005,-88.2718 106.669,-92.3683 116.989,-88.6617 116.989,-88.6617"/>
</g>
<!-- Document -->
<g id="node14" class="node"><title>Document</title>
<ellipse fill="none" stroke="black" cx="69" cy="-19" rx="62.2254" ry="18.3848"/>
<text text-anchor="middle" x="69" y="-15.4" font-family="Times Roman,serif" font-size="14.00">Document</text>
</g>
<!-- Folder&#45;&gt;Document -->
<g id="edge22" class="edge"><title>Folder&#45;&gt;Document</title>
<path fill="none" stroke="#3b28e7" d="M69,-68.0731C69,-61.4485 69,-54.332 69,-47.6302"/>
<ellipse fill="none" stroke="#3b28e7" cx="69" cy="-72.2135" rx="4" ry="4"/>
<polygon fill="#3b28e7" stroke="#3b28e7" points="69.0001,-47.5704 73.5,-37.5704 69,-42.5704 69,-37.5704 69,-37.5704 69,-37.5704 69,-42.5704 64.5,-37.5705 69.0001,-47.5704 69.0001,-47.5704"/>
</g>
<!-- CollegeBranchPair -->
<g id="node5" class="node"><title>CollegeBranchPair</title>
<ellipse fill="none" stroke="black" cx="852" cy="-339" rx="99.9096" ry="18.3848"/>
<text text-anchor="middle" x="852" y="-335.4" font-family="Times Roman,serif" font-size="14.00">CollegeBranchPair</text>
</g>
<!-- CollegeBranchPair&#45;&gt;Course -->
<g id="edge26" class="edge"><title>CollegeBranchPair&#45;&gt;Course</title>
<path fill="none" stroke="#9771bc" d="M841.547,-365.138C823.561,-408.684 784.202,-498.01 738,-566 735.242,-570.058 732.077,-574.143 728.822,-578.042"/>
<ellipse fill="none" stroke="#9771bc" cx="843.138" cy="-361.256" rx="4.00001" ry="4.00001"/>
<polygon fill="#9771bc" stroke="#9771bc" points="728.696,-578.186 718.728,-582.755 725.406,-581.951 722.116,-585.716 722.116,-585.716 722.116,-585.716 725.406,-581.951 725.505,-588.677 728.696,-578.186 728.696,-578.186"/>
</g>
<!-- CollegeBranchPair&#45;&gt;Comment -->
<g id="edge28" class="edge"><title>CollegeBranchPair&#45;&gt;Comment</title>
<path fill="none" stroke="#e94714" d="M821.215,-315.729C799.1,-296.126 775.952,-267.588 793,-244 808.766,-222.186 892.234,-227.814 908,-206 927.265,-179.344 925.715,-159.71 908,-132 902.131,-122.82 893.338,-115.884 883.702,-110.654"/>
<ellipse fill="none" stroke="#e94714" cx="824.351" cy="-318.41" rx="4.00002" ry="4.00002"/>
<polygon fill="#e94714" stroke="#e94714" points="883.688,-110.647 876.624,-102.26 879.181,-108.481 874.675,-106.316 874.675,-106.316 874.675,-106.316 879.181,-108.481 872.725,-110.371 883.688,-110.647 883.688,-110.647"/>
</g>
<!-- User -->
<g id="node15" class="node"><title>User</title>
<ellipse fill="none" stroke="black" cx="582" cy="-263" rx="33.9411" ry="18.3848"/>
<text text-anchor="middle" x="582" y="-259.4" font-family="Times Roman,serif" font-size="14.00">User</text>
</g>
<!-- CollegeBranchPair&#45;&gt;User -->
<g id="edge32" class="edge"><title>CollegeBranchPair&#45;&gt;User</title>
<path fill="none" stroke="#1d006e" d="M789.028,-321.275C737.586,-306.795 666.413,-286.761 622.338,-274.355"/>
<ellipse fill="none" stroke="#1d006e" cx="793.186" cy="-322.445" rx="4.00001" ry="4.00001"/>
<polygon fill="#1d006e" stroke="#1d006e" points="622.18,-274.31 613.774,-267.269 617.367,-272.955 612.554,-271.601 612.554,-271.601 612.554,-271.601 617.367,-272.955 611.335,-275.932 622.18,-274.31 622.18,-274.31"/>
</g>
<!-- UserCollegeBranchEnrollment -->
<g id="node33" class="node"><title>UserCollegeBranchEnrollment</title>
<ellipse fill="none" stroke="black" cx="959" cy="-263" rx="156.978" ry="18.3848"/>
<text text-anchor="middle" x="959" y="-259.4" font-family="Times Roman,serif" font-size="14.00">UserCollegeBranchEnrollment</text>
</g>
<!-- CollegeBranchPair&#45;&gt;UserCollegeBranchEnrollment -->
<g id="edge30" class="edge"><title>CollegeBranchPair&#45;&gt;UserCollegeBranchEnrollment</title>
<path fill="none" stroke="#697ad6" d="M883.884,-316.353C896.764,-307.205 911.654,-296.629 924.763,-287.318"/>
<ellipse fill="none" stroke="#697ad6" cx="880.619" cy="-318.673" rx="4.00002" ry="4.00002"/>
<polygon fill="#697ad6" stroke="#697ad6" points="924.928,-287.2 935.687,-285.078 929.005,-284.305 933.081,-281.41 933.081,-281.41 933.081,-281.41 929.005,-284.305 930.475,-277.741 924.928,-287.2 924.928,-287.2"/>
</g>
<!-- Bucket&#45;&gt;Folder -->
<g id="edge38" class="edge"><title>Bucket&#45;&gt;Folder</title>
<path fill="none" stroke="#5af440" d="M195.607,-167.799C168.53,-152.23 130.514,-130.37 103.217,-114.675"/>
<ellipse fill="none" stroke="#5af440" cx="199.112" cy="-169.814" rx="4.00002" ry="4.00002"/>
<polygon fill="#5af440" stroke="#5af440" points="103.071,-114.591 96.6453,-105.705 98.7367,-112.099 94.4022,-109.606 94.4022,-109.606 94.4022,-109.606 98.7367,-112.099 92.159,-113.507 103.071,-114.591 103.071,-114.591"/>
</g>
<!-- Download -->
<g id="node9" class="node"><title>Download</title>
<ellipse fill="none" stroke="black" cx="207" cy="-95" rx="60.8112" ry="18.3848"/>
<text text-anchor="middle" x="207" y="-91.4" font-family="Times Roman,serif" font-size="14.00">Download</text>
</g>
<!-- Bucket&#45;&gt;Download -->
<g id="edge42" class="edge"><title>Bucket&#45;&gt;Download</title>
<path fill="none" stroke="#bd36f1" d="M222.65,-160.447C219.875,-148.84 216.615,-135.21 213.792,-123.401"/>
<ellipse fill="none" stroke="#bd36f1" cx="223.618" cy="-164.492" rx="4.00001" ry="4.00001"/>
<polygon fill="#bd36f1" stroke="#bd36f1" points="213.771,-123.316 215.822,-112.543 212.608,-118.453 211.445,-113.59 211.445,-113.59 211.445,-113.59 212.608,-118.453 207.069,-114.636 213.771,-123.316 213.771,-123.316"/>
</g>
<!-- Bucket&#45;&gt;Comment -->
<g id="edge44" class="edge"><title>Bucket&#45;&gt;Comment</title>
<path fill="none" stroke="#67a70e" d="M276.908,-176.532C291.071,-173.593 306.631,-170.516 321,-168 321.682,-167.881 628.611,-123.699 764.52,-104.137"/>
<ellipse fill="none" stroke="#67a70e" cx="272.664" cy="-177.421" rx="4.00001" ry="4.00001"/>
<polygon fill="#67a70e" stroke="#67a70e" points="764.887,-104.084 775.426,-107.114 769.836,-103.372 774.785,-102.659 774.785,-102.659 774.785,-102.659 769.836,-103.372 774.144,-98.2053 764.887,-104.084 764.887,-104.084"/>
</g>
<!-- Bucket&#45;&gt;Document -->
<g id="edge40" class="edge"><title>Bucket&#45;&gt;Document</title>
<path fill="none" stroke="#6d1b5b" d="M252.176,-163.839C273.061,-140.108 297.573,-102.97 277,-76 259.737,-53.3695 189.615,-37.5148 135.508,-28.3696"/>
<ellipse fill="none" stroke="#6d1b5b" cx="249.39" cy="-166.903" rx="4.00002" ry="4.00002"/>
<polygon fill="#6d1b5b" stroke="#6d1b5b" points="135.475,-28.3643 126.339,-22.2997 130.541,-27.5521 125.608,-26.74 125.608,-26.74 125.608,-26.74 130.541,-27.5521 124.877,-31.1802 135.475,-28.3643 135.475,-28.3643"/>
</g>
<!-- ActsAsVotable::Vote -->
<g id="node37" class="node"><title>ActsAsVotable::Vote</title>
<ellipse fill="none" stroke="black" cx="578" cy="-95" rx="108.894" ry="18.3848"/>
<text text-anchor="middle" x="578" y="-91.4" font-family="Times Roman,serif" font-size="14.00">ActsAsVotable::Vote</text>
</g>
<!-- Bucket&#45;&gt;ActsAsVotable::Vote -->
<g id="edge36" class="edge"><title>Bucket&#45;&gt;ActsAsVotable::Vote</title>
<path fill="none" stroke="#5e9385" d="M262.671,-167.951C271.997,-162.395 282.02,-156.157 291,-150 301.706,-142.659 302.052,-137.075 314,-132 341.893,-120.153 410.335,-110.744 470.541,-104.379"/>
<ellipse fill="none" stroke="#5e9385" cx="259.152" cy="-170.024" rx="4.00002" ry="4.00002"/>
<polygon fill="#5e9385" stroke="#5e9385" points="470.564,-104.377 480.975,-107.821 475.537,-103.861 480.511,-103.345 480.511,-103.345 480.511,-103.345 475.537,-103.861 480.046,-98.8687 470.564,-104.377 470.564,-104.377"/>
<text text-anchor="middle" x="346" y="-137.4" font-family="Times Roman,serif" font-size="14.00">votes_for</text>
</g>
<!-- Branch&#45;&gt;CollegeBranchPair -->
<g id="edge48" class="edge"><title>Branch&#45;&gt;CollegeBranchPair</title>
<path fill="none" stroke="#21fae2" d="M860.721,-465.531C856.401,-455.918 852.163,-444.713 850,-434 845.585,-412.135 846.391,-386.865 848.136,-367.886"/>
<ellipse fill="none" stroke="#21fae2" cx="862.463" cy="-469.238" rx="4.00002" ry="4.00002"/>
<polygon fill="#21fae2" stroke="#21fae2" points="848.153,-367.727 853.681,-358.256 848.679,-362.754 849.206,-357.782 849.206,-357.782 849.206,-357.782 848.679,-362.754 844.731,-357.308 848.153,-367.727 848.153,-367.727"/>
</g>
<!-- Branch&#45;&gt;College -->
<g id="edge50" class="edge"><title>Branch&#45;&gt;College</title>
<path fill="none" stroke="#16c40d" d="M885.723,-463.158C888.519,-456.517 891.503,-449.43 894.298,-442.792"/>
<polygon fill="#16c40d" stroke="#16c40d" points="885.627,-463.386 877.599,-470.856 883.687,-467.994 881.746,-472.603 881.746,-472.603 881.746,-472.603 883.687,-467.994 885.894,-474.349 885.627,-463.386 885.627,-463.386"/>
<polygon fill="#16c40d" stroke="#16c40d" points="894.333,-442.708 902.361,-435.238 896.274,-438.1 898.214,-433.491 898.214,-433.491 898.214,-433.491 896.274,-438.1 894.067,-431.745 894.333,-442.708 894.333,-442.708"/>
</g>
<!-- AdminUser -->
<g id="node8" class="node"><title>AdminUser</title>
<ellipse fill="none" stroke="black" cx="1274" cy="-603" rx="63.8479" ry="18.3848"/>
<text text-anchor="middle" x="1274" y="-599.4" font-family="Times Roman,serif" font-size="14.00">AdminUser</text>
</g>
<!-- CommentResponse -->
<g id="node11" class="node"><title>CommentResponse</title>
<ellipse fill="none" stroke="black" cx="526" cy="-19" rx="104.151" ry="18.3848"/>
<text text-anchor="middle" x="526" y="-15.4" font-family="Times Roman,serif" font-size="14.00">CommentResponse</text>
</g>
<!-- Comment&#45;&gt;CommentResponse -->
<g id="edge62" class="edge"><title>Comment&#45;&gt;CommentResponse</title>
<path fill="none" stroke="#b029ed" d="M774.563,-81.5522C724.898,-69.0539 650.61,-50.3589 596.183,-36.6619"/>
<ellipse fill="none" stroke="#b029ed" cx="778.582" cy="-82.5635" rx="4.00001" ry="4.00001"/>
<polygon fill="#b029ed" stroke="#b029ed" points="595.959,-36.6057 587.36,-29.8012 591.11,-35.3854 586.261,-34.1651 586.261,-34.1651 586.261,-34.1651 591.11,-35.3854 585.163,-38.5291 595.959,-36.6057 595.959,-36.6057"/>
</g>
<!-- User&#45;&gt;Bucket -->
<g id="edge76" class="edge"><title>User&#45;&gt;Bucket</title>
<path fill="none" stroke="#b053d7" d="M546.756,-249.356C523.564,-240.877 492.362,-230.408 464,-224 401.518,-209.883 384.193,-216.486 321,-206 307.281,-203.724 292.495,-200.856 278.875,-198.043"/>
<ellipse fill="none" stroke="#b053d7" cx="550.547" cy="-250.759" rx="4.00001" ry="4.00001"/>
<polygon fill="#b053d7" stroke="#b053d7" points="278.51,-197.967 269.647,-191.51 273.616,-196.94 268.723,-195.914 268.723,-195.914 268.723,-195.914 273.616,-196.94 267.799,-200.318 278.51,-197.967 278.51,-197.967"/>
</g>
<!-- User&#45;&gt;Download -->
<g id="edge80" class="edge"><title>User&#45;&gt;Download</title>
<path fill="none" stroke="#9453b4" d="M576.189,-236.398C570.078,-214.783 558.294,-185.161 537,-168 497.213,-135.936 358.815,-113.712 274.402,-102.78"/>
<ellipse fill="none" stroke="#9453b4" cx="577.24" cy="-240.38" rx="4.00001" ry="4.00001"/>
<polygon fill="#9453b4" stroke="#9453b4" points="274.305,-102.767 264.955,-97.0387 269.346,-102.135 264.386,-101.503 264.386,-101.503 264.386,-101.503 269.346,-102.135 263.817,-105.966 274.305,-102.767 274.305,-102.767"/>
</g>
<!-- User&#45;&gt;CourseEnrollment -->
<g id="edge74" class="edge"><title>User&#45;&gt;CourseEnrollment</title>
<path fill="none" stroke="#cba4cf" d="M553.828,-243.817C543.43,-237.131 531.4,-229.846 520,-224 508.504,-218.105 495.844,-212.459 483.715,-207.431"/>
<ellipse fill="none" stroke="#cba4cf" cx="557.388" cy="-246.14" rx="4.00002" ry="4.00002"/>
<polygon fill="#cba4cf" stroke="#cba4cf" points="483.399,-207.303 475.828,-199.369 478.767,-205.42 474.134,-203.538 474.134,-203.538 474.134,-203.538 478.767,-205.42 472.441,-207.707 483.399,-207.303 483.399,-207.303"/>
</g>
<!-- User&#45;&gt;Comment -->
<g id="edge72" class="edge"><title>User&#45;&gt;Comment</title>
<path fill="none" stroke="#0ba359" d="M603.267,-240.702C623.543,-220.215 655.565,-189.811 687,-168 717.623,-146.752 755.233,-127.585 783.905,-114.227"/>
<ellipse fill="none" stroke="#0ba359" cx="600.418" cy="-243.605" rx="4.00002" ry="4.00002"/>
<polygon fill="#0ba359" stroke="#0ba359" points="784.178,-114.102 795.143,-114.014 788.721,-112.014 793.264,-109.926 793.264,-109.926 793.264,-109.926 788.721,-112.014 791.384,-105.837 784.178,-114.102 784.178,-114.102"/>
</g>
<!-- User&#45;&gt;CourseFavorite -->
<g id="edge78" class="edge"><title>User&#45;&gt;CourseFavorite</title>
<path fill="none" stroke="#d0973b" d="M617.918,-249.283C648.979,-237.42 694.267,-220.124 729.241,-206.767"/>
<ellipse fill="none" stroke="#d0973b" cx="613.827" cy="-250.845" rx="4.00001" ry="4.00001"/>
<polygon fill="#d0973b" stroke="#d0973b" points="729.47,-206.68 740.417,-207.316 734.141,-204.896 738.811,-203.112 738.811,-203.112 738.811,-203.112 734.141,-204.896 737.206,-198.908 729.47,-206.68 729.47,-206.68"/>
</g>
<!-- User&#45;&gt;ActsAsVotable::Vote -->
<g id="edge70" class="edge"><title>User&#45;&gt;ActsAsVotable::Vote</title>
<path fill="none" stroke="#da7390" d="M581.362,-236.225C580.633,-205.587 579.443,-155.587 578.691,-124.034"/>
<ellipse fill="none" stroke="#da7390" cx="581.461" cy="-240.38" rx="4" ry="4"/>
<polygon fill="#da7390" stroke="#da7390" points="578.683,-123.701 582.944,-113.597 578.564,-118.703 578.445,-113.704 578.445,-113.704 578.445,-113.704 578.564,-118.703 573.947,-113.811 578.683,-123.701 578.683,-123.701"/>
<text text-anchor="middle" x="600" y="-183.4" font-family="Times Roman,serif" font-size="14.00">votes</text>
</g>
<!-- College&#45;&gt;CollegeBranchPair -->
<g id="edge84" class="edge"><title>College&#45;&gt;CollegeBranchPair</title>
<path fill="none" stroke="#86cb64" d="M888.406,-390.239C882.83,-382.391 876.643,-373.682 870.974,-365.704"/>
<ellipse fill="none" stroke="#86cb64" cx="890.886" cy="-393.728" rx="4.00002" ry="4.00002"/>
<polygon fill="#86cb64" stroke="#86cb64" points="870.873,-365.561 868.749,-354.803 867.977,-361.486 865.081,-357.41 865.081,-357.41 865.081,-357.41 867.977,-361.486 861.412,-360.016 870.873,-365.561 870.873,-365.561"/>
</g>
<!-- ActiveRecord::Base -->
<g id="node18" class="node"><title>ActiveRecord::Base</title>
<ellipse fill="none" stroke="black" cx="412" cy="-707" rx="103.945" ry="18.3848"/>
<text text-anchor="middle" x="412" y="-703.4" font-family="Times Roman,serif" font-size="14.00">ActiveRecord::Base</text>
</g>
<!-- ActiveRecord::Base&#45;&gt;Category -->
<g id="edge4" class="edge"><title>ActiveRecord::Base&#45;&gt;Category</title>
<path fill="none" stroke="black" d="M364.582,-690.429C338.591,-679.617 307.066,-663.494 284,-642 260.5,-620.102 243.404,-586.347 234.357,-565.523"/>
</g>
<!-- ActiveRecord::Base&#45;&gt;Course -->
<g id="edge18" class="edge"><title>ActiveRecord::Base&#45;&gt;Course</title>
<path fill="none" stroke="black" d="M458.751,-690.406C517.722,-669.474 617.76,-633.966 670.343,-615.301"/>
</g>
<!-- ActiveRecord::Base&#45;&gt;Folder -->
<g id="edge24" class="edge"><title>ActiveRecord::Base&#45;&gt;Folder</title>
<path fill="none" stroke="black" d="M376.689,-689.577C354.809,-679.477 325.848,-667.342 299,-660 209.845,-635.62 99,-695.428 99,-603 99,-603 99,-603 99,-187 99,-160.288 87.4273,-131.268 78.6573,-113.111"/>
</g>
<!-- ActiveRecord::Base&#45;&gt;CollegeBranchPair -->
<g id="edge34" class="edge"><title>ActiveRecord::Base&#45;&gt;CollegeBranchPair</title>
<path fill="none" stroke="black" d="M507.106,-699.391C670.232,-685.047 986,-651.074 986,-603 986,-603 986,-603 986,-415 986,-381.836 954.561,-362.969 922.14,-352.329"/>
</g>
<!-- ActiveRecord::Base&#45;&gt;Bucket -->
<g id="edge46" class="edge"><title>ActiveRecord::Base&#45;&gt;Bucket</title>
<path fill="none" stroke="black" d="M371.487,-689.947C338.72,-673.131 298,-643.989 298,-603 298,-603 298,-603 298,-263 298,-236.625 274.938,-215.344 255.48,-202.084"/>
</g>
<!-- ActiveRecord::Base&#45;&gt;Branch -->
<g id="edge52" class="edge"><title>ActiveRecord::Base&#45;&gt;Branch</title>
<path fill="none" stroke="black" d="M492.506,-695.154C564.642,-682.734 672.285,-659.68 760,-622 802.251,-603.85 818.364,-601.98 847,-566 860.185,-549.433 867.254,-525.879 870.808,-509.608"/>
</g>
<!-- ActiveRecord::Base&#45;&gt;AdminUser -->
<g id="edge54" class="edge"><title>ActiveRecord::Base&#45;&gt;AdminUser</title>
<path fill="none" stroke="black" d="M514.03,-703.348C696.293,-696.028 1070.49,-677.167 1196,-642 1213.79,-637.017 1232.33,-627.926 1246.88,-619.774"/>
</g>
<!-- ActiveRecord::Base&#45;&gt;Download -->
<g id="edge56" class="edge"><title>ActiveRecord::Base&#45;&gt;Download</title>
<path fill="none" stroke="black" d="M371.263,-689.885C349.796,-680.909 323.007,-669.777 299,-660 235.634,-634.195 156,-671.418 156,-603 156,-603 156,-603 156,-187 156,-158.328 175.182,-130.222 190.018,-112.771"/>
</g>
<!-- ActiveRecord::Base&#45;&gt;CourseEnrollment -->
<g id="edge58" class="edge"><title>ActiveRecord::Base&#45;&gt;CourseEnrollment</title>
<path fill="none" stroke="black" d="M387.535,-688.836C365.318,-670.064 336,-638.557 336,-603 336,-603 336,-603 336,-263 336,-235.372 360.914,-215.984 384.951,-203.707"/>
</g>
<!-- ActiveRecord::Base&#45;&gt;CommentResponse -->
<g id="edge60" class="edge"><title>ActiveRecord::Base&#45;&gt;CommentResponse</title>
<path fill="none" stroke="black" d="M412,-688.212C412,-667.384 412,-632.792 412,-603 412,-603 412,-603 412,-377 412,-275.688 260.34,-249.145 321,-168 337.925,-145.36 357.512,-164.119 382,-150 423.397,-126.131 424.574,-108.07 460,-76 474.591,-62.7909 491.383,-48.2985 504.377,-37.2324"/>
</g>
<!-- ActiveRecord::Base&#45;&gt;Comment -->
<g id="edge64" class="edge"><title>ActiveRecord::Base&#45;&gt;Comment</title>
<path fill="none" stroke="black" d="M514.648,-703.608C724.285,-695.307 1182,-669.562 1182,-603 1182,-603 1182,-603 1182,-187 1182,-126.437 985.459,-105.049 885.27,-98.0802"/>
</g>
<!-- ActiveRecord::Base&#45;&gt;CourseFavorite -->
<g id="edge66" class="edge"><title>ActiveRecord::Base&#45;&gt;CourseFavorite</title>
<path fill="none" stroke="black" d="M513.781,-702.904C714.915,-693.445 1144,-665.896 1144,-603 1144,-603 1144,-603 1144,-263 1144,-251.058 1135.62,-249.46 1125,-244 1079.84,-220.788 946.158,-203.521 859.355,-194.375"/>
</g>
<!-- ActiveRecord::Base&#45;&gt;Document -->
<g id="edge68" class="edge"><title>ActiveRecord::Base&#45;&gt;Document</title>
<path fill="none" stroke="black" d="M377.304,-689.367C355.41,-679.055 326.217,-666.771 299,-660 233.36,-643.671 0,-670.641 0,-603 0,-603 0,-603 0,-95 0,-69.5157 21.5299,-48.7881 40.5367,-35.4549"/>
</g>
<!-- ActiveRecord::Base&#45;&gt;User -->
<g id="edge82" class="edge"><title>ActiveRecord::Base&#45;&gt;User</title>
<path fill="none" stroke="black" d="M400.804,-688.574C389.595,-668.341 374,-634.526 374,-603 374,-603 374,-603 374,-339 374,-302.188 490.391,-277.922 549.042,-268.032"/>
</g>
<!-- ActiveRecord::Base&#45;&gt;College -->
<g id="edge86" class="edge"><title>ActiveRecord::Base&#45;&gt;College</title>
<path fill="none" stroke="black" d="M510.32,-700.963C594.128,-692.421 715.644,-671.796 810,-622 874.234,-588.101 900.618,-576.855 929,-510 939.875,-484.383 927.377,-452.6 916.99,-433.064"/>
</g>
</g>
</svg>
